<?xml version="1.0" encoding="UTF-8" standalone="no"?>
<!-- Created with Inkscape (http://www.inkscape.org/) -->

<svg
   xmlns:dc="http://purl.org/dc/elements/1.1/"
   xmlns:cc="http://creativecommons.org/ns#"
   xmlns:rdf="http://www.w3.org/1999/02/22-rdf-syntax-ns#"
   xmlns:svg="http://www.w3.org/2000/svg"
   xmlns="http://www.w3.org/2000/svg"
   xmlns:sodipodi="http://sodipodi.sourceforge.net/DTD/sodipodi-0.dtd"
   xmlns:inkscape="http://www.inkscape.org/namespaces/inkscape"
   width="24"
   height="24"
   viewBox="0 0 6.3500002 6.3500002"
   version="1.1"
   id="svg8"
   inkscape:version="0.92.2 2405546, 2018-03-11"
   sodipodi:docname="gaming.svg">
  <defs
     id="defs2" />
  <sodipodi:namedview
     id="base"
     pagecolor="#1a1a1a"
     bordercolor="#666666"
     borderopacity="1.0"
     inkscape:pageopacity="0"
     inkscape:pageshadow="2"
     inkscape:zoom="0.35"
     inkscape:cx="400"
     inkscape:cy="560"
     inkscape:document-units="mm"
     inkscape:current-layer="text1544"
     showgrid="false"
     units="px">
    <inkscape:grid
       type="xygrid"
       id="grid4518" />
  </sodipodi:namedview>
  <metadata
     id="metadata5">
    <rdf:RDF>
      <cc:Work
         rdf:about="">
        <dc:format>image/svg+xml</dc:format>
        <dc:type
           rdf:resource="http://purl.org/dc/dcmitype/StillImage" />
        <dc:title></dc:title>
      </cc:Work>
    </rdf:RDF>
  </metadata>
  <g
     inkscape:label="Layer 1"
     inkscape:groupmode="layer"
     id="layer1"
     transform="translate(0,-290.64998)">
    <g
       aria-label="();"
       style="font-style:normal;font-variant:normal;font-weight:normal;font-stretch:normal;font-size:4.23333311px;line-height:125%;font-family:'Roboto Condensed';-inkscape-font-specification:'Roboto Condensed, ';opacity:1;vector-effect:none;fill:#fefefe;fill-opacity:1;stroke:#ffffff;stroke-width:0.26458332;stroke-linecap:square;stroke-linejoin:miter;stroke-miterlimit:4;stroke-dasharray:none;stroke-dashoffset:0;stroke-opacity:1;paint-order:markers fill stroke"
       id="text1544">
      <path
         style="opacity:1;vector-effect:none;fill:#ffffff;fill-opacity:1;stroke:none;stroke-width:0.23220497;stroke-linecap:square;stroke-linejoin:miter;stroke-miterlimit:4;stroke-dasharray:none;stroke-dashoffset:0;stroke-opacity:1;paint-order:markers fill stroke"
         d="m 1.4179133,291.84455 c -0.65307078,0.0405 -1.01261233,0.85943 -1.14153241,1.6831 -0.15715965,1.00408 0.36645911,2.17767 0.98701991,2.27479 0.6205605,0.0971 0.9261908,-1.39371 1.4081827,-1.39371 h 0.945162 c 0.5209064,0 0.7876239,1.49084 1.4081826,1.39371 0.6205588,-0.0971 1.2082534,-1.27071 1.0510989,-2.27479 -0.1473335,-0.94133 -0.764064,-1.8221 -1.5037843,-1.65055 -0.7397202,0.17155 -2.0126248,0.22603 -2.8561564,0 -0.1054415,-0.0283 -0.2048773,-0.0383 -0.298173,-0.0326 z m 3.3594847,0.47594 a 0.21632125,0.21632125 0 0 1 0.2113566,0.17415 0.21632125,0.21632125 0 0 1 -0.1700155,0.25424 0.21632125,0.21632125 0 0 1 -0.2542479,-0.17001 0.21632125,0.21632125 0 0 1 0.1700155,-0.25425 0.21632125,0.21632125 0 0 1 0.042891,-0.004 z m -3.4566364,0.17931 h 0.3622518 v 0.36277 h 0.3627685 v 0.36225 H 1.6830134 v 0.36277 H 1.3207616 v -0.36277 H 0.95799303 v -0.36225 H 1.3207616 Z m 4.0447144,0.21343 a 0.21632125,0.21632125 0 0 1 0.2113566,0.17415 0.21632125,0.21632125 0 0 1 -0.1700155,0.25424 0.21632125,0.21632125 0 0 1 -0.2542481,-0.17001 0.21632125,0.21632125 0 0 1 0.1700154,-0.25425 0.21632125,0.21632125 0 0 1 0.042892,-0.004 z m -0.9808189,0.19533 a 0.21632125,0.21632125 0 0 1 0.2113569,0.17415 0.21632125,0.21632125 0 0 1 -0.1700157,0.25425 0.21632125,0.21632125 0 0 1 -0.2542479,-0.17001 0.21632125,0.21632125 0 0 1 0.1700154,-0.25425 0.21632125,0.21632125 0 0 1 0.042891,-0.004 z m 0.588078,0.39275 a 0.21632125,0.21632125 0 0 1 0.2113566,0.17414 0.21632125,0.21632125 0 0 1 -0.1700154,0.25425 0.21632125,0.21632125 0 0 1 -0.2542482,-0.17001 0.21632125,0.21632125 0 0 1 0.1700154,-0.25425 0.21632125,0.21632125 0 0 1 0.042892,-0.004 z"
         id="path1689"
         inkscape:connector-curvature="0" />
    </g>
  </g>
</svg>
