<?xml version="1.0" encoding="UTF-8" standalone="no"?>
<svg
   xmlns:dc="http://purl.org/dc/elements/1.1/"
   xmlns:cc="http://creativecommons.org/ns#"
   xmlns:rdf="http://www.w3.org/1999/02/22-rdf-syntax-ns#"
   xmlns:svg="http://www.w3.org/2000/svg"
   xmlns="http://www.w3.org/2000/svg"
   xmlns:sodipodi="http://sodipodi.sourceforge.net/DTD/sodipodi-0.dtd"
   xmlns:inkscape="http://www.inkscape.org/namespaces/inkscape"
   width="24"
   height="24"
   viewBox="0 0 22.499999 22.5"
   version="1.1"
   id="svg1524"
   sodipodi:docname="mastodon.svg"
   inkscape:version="1.0.2-2 (e86c870879, 2021-01-15)">
  <metadata
     id="metadata1530">
    <rdf:RDF>
      <cc:Work
         rdf:about="">
        <dc:format>image/svg+xml</dc:format>
        <dc:type
           rdf:resource="http://purl.org/dc/dcmitype/StillImage" />
        <dc:title></dc:title>
      </cc:Work>
    </rdf:RDF>
  </metadata>
  <defs
     id="defs1528" />
  <sodipodi:namedview
     pagecolor="#ffffff"
     bordercolor="#666666"
     borderopacity="1"
     objecttolerance="10"
     gridtolerance="10"
     guidetolerance="10"
     inkscape:pageopacity="0"
     inkscape:pageshadow="2"
     inkscape:window-width="958"
     inkscape:window-height="1020"
     id="namedview1526"
     showgrid="false"
     inkscape:pagecheckerboard="true"
     inkscape:zoom="3.353846"
     inkscape:cx="-8.6156829"
     inkscape:cy="91.686291"
     inkscape:window-x="-5"
     inkscape:window-y="0"
     inkscape:window-maximized="0"
     inkscape:current-layer="svg1524"
     units="px"
     inkscape:document-rotation="0" />
  <path
     id="path1520"
     style="fill:#ffffff;stroke-width:0.0881407"
     d="m 11.219873,1.0252587 c -2.6143595,0.021374 -5.129168,0.3044769 -6.5947245,0.97754 0,0 -2.9066362,1.3001763 -2.9066362,5.7362891 0,1.0158198 -0.019744,2.2304032 0.012427,3.5184662 0.1055483,4.338277 0.7953042,8.613847 4.8063592,9.6755 1.849409,0.489511 3.437334,0.592066 4.7161425,0.521774 2.319088,-0.128575 3.620949,-0.827609 3.620949,-0.827609 l -0.0765,-1.682653 c 0,0 -1.657268,0.522513 -3.518466,0.458833 -1.8440105,-0.06324 -3.7907352,-0.198814 -4.0889806,-2.462814 -0.027544,-0.198867 -0.041316,-0.411583 -0.041316,-0.634908 0,0 1.8102351,0.442489 4.1043126,0.547596 1.402757,0.06434 2.718182,-0.08218 4.054282,-0.241601 2.562245,-0.305958 4.793225,-1.884689 5.073621,-3.327219 0.441805,-2.272373 0.405412,-5.5453652 0.405412,-5.5453652 0,-4.4361128 -2.906474,-5.7362891 -2.906474,-5.7362891 -1.465447,-0.6730631 -3.981818,-0.9561659 -6.596176,-0.97754 z M 8.2611065,4.4914344 c 1.088976,0 1.9135195,0.4185519 2.4587795,1.2557767 l 0.530167,0.888614 0.530166,-0.888614 c 0.545149,-0.8372248 1.369692,-1.2557767 2.458778,-1.2557767 0.941121,0 1.699423,0.3308399 2.278506,0.9762489 0.561345,0.6454091 0.840843,1.5178596 0.840843,2.61565 V 13.454719 H 15.230255 V 8.2411727 c 0,-1.0990022 -0.462384,-1.6568309 -1.387309,-1.6568309 -1.02265,0 -1.535142,0.6616428 -1.535142,1.9700891 V 11.408131 H 10.192301 V 8.5544309 c 0,-1.3084463 -0.5126535,-1.9700891 -1.5353045,-1.9700891 -0.924925,0 -1.3873096,0.5578287 -1.3873096,1.6568309 V 13.454719 H 5.1415967 V 8.0833333 c 0,-1.0977904 0.2795487,-1.9702409 0.8410041,-2.61565 0.5789734,-0.645409 1.3372753,-0.9762489 2.2785057,-0.9762489 z" />
</svg>
