<?xml version="1.0" encoding="UTF-8" standalone="no"?>
<!-- Created with Inkscape (http://www.inkscape.org/) -->

<svg
   xmlns:dc="http://purl.org/dc/elements/1.1/"
   xmlns:cc="http://creativecommons.org/ns#"
   xmlns:rdf="http://www.w3.org/1999/02/22-rdf-syntax-ns#"
   xmlns:svg="http://www.w3.org/2000/svg"
   xmlns="http://www.w3.org/2000/svg"
   xmlns:sodipodi="http://sodipodi.sourceforge.net/DTD/sodipodi-0.dtd"
   xmlns:inkscape="http://www.inkscape.org/namespaces/inkscape"
   width="24"
   height="24"
   viewBox="0 0 6.3500002 6.3500002"
   version="1.1"
   id="svg8"
   inkscape:version="0.92.2 2405546, 2018-03-11"
   sodipodi:docname="palette.svg">
  <defs
     id="defs2" />
  <sodipodi:namedview
     id="base"
     pagecolor="#1a1a1a"
     bordercolor="#666666"
     borderopacity="1.0"
     inkscape:pageopacity="0"
     inkscape:pageshadow="2"
     inkscape:zoom="0.35"
     inkscape:cx="400"
     inkscape:cy="560"
     inkscape:document-units="mm"
     inkscape:current-layer="layer1"
     showgrid="false"
     units="px">
    <inkscape:grid
       type="xygrid"
       id="grid4518" />
  </sodipodi:namedview>
  <metadata
     id="metadata5">
    <rdf:RDF>
      <cc:Work
         rdf:about="">
        <dc:format>image/svg+xml</dc:format>
        <dc:type
           rdf:resource="http://purl.org/dc/dcmitype/StillImage" />
        <dc:title></dc:title>
      </cc:Work>
    </rdf:RDF>
  </metadata>
  <g
     inkscape:label="Layer 1"
     inkscape:groupmode="layer"
     id="layer1"
     transform="translate(0,-290.64998)">
    <path
       style="opacity:1;vector-effect:none;fill:#ffffff;fill-opacity:1;stroke:none;stroke-width:0.60720104;stroke-linecap:square;stroke-linejoin:miter;stroke-miterlimit:4;stroke-dasharray:none;stroke-dashoffset:0;stroke-opacity:1;paint-order:markers fill stroke"
       d="m 2.5683186,291.42252 c -0.2096871,-0.013 -0.464188,0.005 -0.7756632,0.0625 -1.50867126,0.27854 -1.5544649,2.53261 -0.5291666,3.76359 1.0252983,1.23099 2.4223329,1.50916 3.3739542,1.33222 0.018513,-0.003 0.035614,-0.009 0.053744,-0.0134 -0.079083,-0.97661 -0.8074281,-2.3362 -0.7265707,-3.36827 -0.5278932,-0.43842 -0.1028155,-1.69657 -1.3962972,-1.77663 z m -1.3399698,1.09554 a 0.40159971,0.40159971 0 0 1 0.4015258,0.40152 0.40159971,0.40159971 0 0 1 -0.4015258,0.40153 0.40159971,0.40159971 0 0 1 -0.4015259,-0.40153 0.40159971,0.40159971 0 0 1 0.4015259,-0.40152 z m 0.153479,1.09192 a 0.40159971,0.40159971 0 0 1 0.4015259,0.40153 0.40159971,0.40159971 0 0 1 -0.4015259,0.40152 0.40159971,0.40159971 0 0 1 -0.40152592,-0.40152 0.40159971,0.40159971 0 0 1 0.40152592,-0.40153 z m 0.6144328,1.02784 a 0.40159971,0.40159971 0 0 1 0.4015258,0.40153 0.40159971,0.40159971 0 0 1 -0.4015258,0.40153 0.40159971,0.40159971 0 0 1 -0.4015259,-0.40153 0.40159971,0.40159971 0 0 1 0.4015259,-0.40153 z m 3.8354248,0.0212 c -0.011362,0.27569 -0.027855,0.58642 -0.053227,0.92346 0.1165455,-0.30452 0.1427228,-0.6244 0.067696,-0.88005 -0.00442,-0.0151 -0.00993,-0.0286 -0.014469,-0.0434 z m -2.8788941,0.71107 a 0.40159971,0.40159971 0 0 1 0.4015258,0.40153 0.40159971,0.40159971 0 0 1 -0.4015258,0.40152 0.40159971,0.40159971 0 0 1 -0.4015259,-0.40152 0.40159971,0.40159971 0 0 1 0.4015259,-0.40153 z"
       id="path823"
       inkscape:connector-curvature="0" />
    <path
       style="opacity:1;vector-effect:none;fill:#ffffff;fill-opacity:1;stroke:none;stroke-width:1.18228161;stroke-linecap:square;stroke-linejoin:miter;stroke-miterlimit:4;stroke-dasharray:none;stroke-dashoffset:0;stroke-opacity:1;paint-order:markers fill stroke"
       d="m 4.481811,292.86625 c 0.066211,-0.14289 0.2197642,-0.31729 0.38952,-0.33042 0.1697571,-0.0131 0.3760156,0.1384 0.4356929,0.26661 0.1789319,0.38443 -0.1187946,3.83099 -0.1187946,3.83099 0,0 -0.8561659,-3.44403 -0.7064183,-3.76718 z"
       id="path874"
       inkscape:connector-curvature="0"
       sodipodi:nodetypes="sascs" />
    <path
       style="opacity:1;vector-effect:none;fill:#ffffff;fill-opacity:1;stroke:none;stroke-width:1.18228161;stroke-linecap:square;stroke-linejoin:miter;stroke-miterlimit:4;stroke-dasharray:none;stroke-dashoffset:0;stroke-opacity:1;paint-order:markers fill stroke"
       d="m 5.1773926,292.19091 c -0.077547,0.17761 -0.1979978,0.23165 -0.3365449,0.25015 -0.1424379,0.019 -0.3244164,-10e-4 -0.4013483,-0.15739 -0.2306677,-0.46806 0.1457709,-1.16839 0.1457709,-1.16839 0,0 0.7675083,0.67396 0.5921223,1.07563 z"
       id="path874-5"
       inkscape:connector-curvature="0"
       sodipodi:nodetypes="sascs" />
    <path
       style="opacity:1;vector-effect:none;fill:#ffffff;fill-opacity:1;stroke:none;stroke-width:1.18228161;stroke-linecap:square;stroke-linejoin:miter;stroke-miterlimit:4;stroke-dasharray:none;stroke-dashoffset:0;stroke-opacity:1;paint-order:markers fill stroke"
       d="m 5.1773925,292.19091 c -0.077547,0.17761 -0.1979978,0.23165 -0.3365449,0.25015 -0.1424379,0.019 -0.3244164,-10e-4 -0.4013483,-0.15739 -0.2306677,-0.46806 0.1457709,-1.16839 0.1457709,-1.16839 0,0 0.7675083,0.67396 0.5921223,1.07563 z"
       id="path874-5-1"
       inkscape:connector-curvature="0"
       sodipodi:nodetypes="sascs" />
  </g>
</svg>
