<?xml version="1.0" encoding="UTF-8" standalone="no"?>
<!-- Created with Inkscape (http://www.inkscape.org/) -->

<svg
   width="196.65155mm"
   height="146.7923mm"
   viewBox="0 0 196.65155 146.7923"
   version="1.1"
   id="svg3652"
   xml:space="preserve"
   inkscape:version="1.2.2 (732a01da63, 2022-12-09)"
   sodipodi:docname="pinch_to_zoom.svg"
   xmlns:inkscape="http://www.inkscape.org/namespaces/inkscape"
   xmlns:sodipodi="http://sodipodi.sourceforge.net/DTD/sodipodi-0.dtd"
   xmlns="http://www.w3.org/2000/svg"
   xmlns:svg="http://www.w3.org/2000/svg"><sodipodi:namedview
     id="namedview3654"
     pagecolor="#505050"
     bordercolor="#ffffff"
     borderopacity="1"
     inkscape:showpageshadow="0"
     inkscape:pageopacity="0"
     inkscape:pagecheckerboard="1"
     inkscape:deskcolor="#505050"
     inkscape:document-units="mm"
     showgrid="false"
     inkscape:zoom="0.36925856"
     inkscape:cx="-448.19543"
     inkscape:cy="369.65968"
     inkscape:window-width="1920"
     inkscape:window-height="1010"
     inkscape:window-x="-6"
     inkscape:window-y="-6"
     inkscape:window-maximized="1"
     inkscape:current-layer="layer1" /><defs
     id="defs3649" /><g
     inkscape:label="Layer 1"
     inkscape:groupmode="layer"
     id="layer1"
     transform="translate(-39.758726,-70.875049)"><path
       style="fill:#ffffff;stroke-width:0.264583"
       d="m 155.37749,187.14105 c -4.25385,0.50723 -9.46365,-0.0926 -13.58264,-1.56385 -2.73378,-0.97647 -7.68677,-3.93433 -10.02464,-5.98658 -2.54154,-2.23102 -5.64634,-6.0072 -8.80963,-10.71457 -3.53515,-5.26076 -7.1693,-9.47871 -10.195,-11.83273 -4.74037,-3.68804 -6.24645,-5.41555 -6.94596,-7.96718 -0.49292,-1.7979 -0.26322,-3.42362 0.67309,-4.76473 0.90854,-1.30132 2.03418,-1.91544 4.45289,-2.42936 1.84053,-0.39109 2.47688,-0.39335 4.36672,-0.0157 2.74779,0.54905 5.88767,2.19705 8.57056,4.49836 l 1.97203,1.69156 -5.47103,-20.69713 -5.47104,-20.69714 0.3264,-1.65542 c 0.57709,-2.92686 2.52603,-4.99809 5.43697,-5.778077 2.92559,-0.783911 5.63409,-0.0047 7.61876,2.191767 l 1.17509,1.30051 2.26371,8.12761 c 1.24509,4.47018 2.33143,8.0645 2.41413,7.98738 2.8154,-2.62515 6.01199,-3.24565 9.02651,-1.75214 1.49305,0.7397 3.26269,2.49172 3.55081,3.51546 0.29087,1.03341 0.6485,1.08316 1.62359,0.22578 2.18579,-1.92191 5.49333,-2.33277 8.15675,-1.01323 1.49305,0.73971 3.26268,2.49173 3.5508,3.51546 0.29088,1.03342 0.6485,1.08317 1.62359,0.2258 3.08927,-2.71632 8.12038,-2.23766 10.79417,1.02692 0.9399,1.14757 1.03813,1.42452 3.0412,8.57482 3.90506,13.9397 4.83828,21.18711 3.7591,29.19316 -1.19328,8.85249 -5.36082,16.02358 -11.84696,20.38507 -3.20491,2.15509 -8.06505,3.93306 -12.05009,4.40824 z m 7.90957,-5.53698 c 9.33865,-4.681 14.09388,-14.67672 13.26394,-27.88148 -0.30865,-4.91073 -0.95744,-8.18243 -3.51735,-17.73708 -2.30481,-8.60252 -2.34615,-8.72505 -3.22113,-9.66825 -2.21694,-2.38818 -6.34469,-1.54353 -7.49512,1.53371 -0.34239,0.91583 -0.29521,1.32569 0.58459,5.07903 0.91521,3.90439 0.93637,4.11119 0.48438,4.73224 -0.60129,0.82617 -1.02119,0.93294 -1.83082,0.46551 -0.61491,-0.35502 -0.7394,-0.71494 -2.43128,-7.02913 -1.64124,-6.1252 -1.84459,-6.723 -2.55396,-7.5101 -1.14392,-1.26916 -2.43478,-1.64973 -4.30653,-1.26962 -1.3168,0.26742 -1.68438,0.45236 -2.28066,1.14956 -1.54509,1.80565 -1.54557,1.93606 -0.0303,8.1592 1.46809,6.02924 1.48351,6.47237 0.23679,6.80642 -0.35827,0.096 -0.91271,0.0406 -1.2321,-0.12319 -0.53944,-0.27658 -0.73583,-0.87667 -2.76415,-8.44648 -2.03998,-7.61329 -2.23412,-8.20492 -2.95422,-9.0039 -1.14392,-1.26917 -2.43478,-1.64972 -4.30654,-1.26962 -1.31679,0.26742 -1.68437,0.45236 -2.28064,1.14956 -0.39101,0.45694 -0.86458,1.21969 -1.05237,1.695 -0.32615,0.82545 -0.24499,1.24716 1.80958,9.40314 2.33386,9.26464 2.34625,9.39133 0.95479,9.76417 -1.57059,0.42084 -1.33219,1.09462 -6.69757,-18.92923 -3.27218,-12.21194 -5.02924,-18.41239 -5.34058,-18.84637 -1.76841,-2.46488 -5.62515,-2.4575 -7.27441,0.0139 -1.3287,1.99105 -1.69865,0.17043 5.47385,26.93855 6.41762,23.95088 6.50408,24.30062 6.13474,24.93973 -0.82097,1.42198 -1.90068,1.07139 -3.46638,-1.12556 -2.94045,-4.12596 -7.11211,-7.83304 -10.14335,-9.01372 -4.03773,-1.57273 -7.87168,-1.00214 -8.36339,1.24467 -0.45919,2.09826 0.70646,3.59583 6.25678,8.03833 3.15695,2.52685 6.74597,6.71232 10.60035,12.36203 4.89717,7.17821 7.74125,10.18725 12.32871,13.04382 4.59192,2.85935 9.88105,4.23714 15.21912,3.96451 2.95916,-0.15113 7.68011,-1.36867 10.19521,-2.62931 z m -59.40491,2.17655 c -0.27942,-0.18877 -1.31241,-1.65015 -2.29552,-3.2475 -1.67199,-2.71666 -1.772133,-2.95085 -1.55006,-3.62494 0.23399,-0.71026 0.9759,-1.0997 1.90849,-1.00178 0.24574,0.0258 0.80911,0.64489 1.2519,1.37575 0.60294,0.9952 0.8384,1.21695 0.93779,0.88318 0.073,-0.2451 0.6512,-2.64869 1.28489,-5.34128 1.20909,-5.13749 1.50873,-5.69686 2.87997,-5.37637 1.30238,0.30439 1.30301,1.00815 0.006,6.47143 -0.67847,2.85721 -1.18926,5.22052 -1.1351,5.25179 0.0542,0.0312 0.63666,-0.28909 1.29443,-0.71192 1.11436,-0.71633 1.24878,-0.75138 1.97041,-0.51369 0.87824,0.28933 1.35599,1.44512 0.87692,2.12148 -0.37607,0.53095 -5.40068,3.64291 -6.25931,3.87667 -0.36425,0.0997 -0.89112,0.0259 -1.17055,-0.16287 z m 7.05916,-19.07679 c -2.4724,-0.27028 -4.73696,-1.09087 -7.01431,-2.54172 -8.326462,-5.30463 -9.961878,-16.86954 -3.43842,-24.31499 2.32299,-2.65131 4.289,-3.81753 8.19315,-4.86012 2.81201,-0.75141 3.43966,-0.8319 5.23276,-0.67498 1.12059,0.0981 2.71062,0.393 3.53341,0.6554 2.1636,0.69001 2.73715,2.04975 1.28691,3.05102 -0.48302,0.33348 -0.86045,0.32218 -2.0647,-0.0619 -2.51668,-0.80261 -4.48791,-0.8357 -7.22519,-0.12131 -4.58554,1.19681 -7.87724,4.30129 -9.31385,8.78425 -1.124311,3.50845 -0.547112,7.80568 1.4818,11.03201 2.0516,3.2624 5.8596,5.61771 9.65431,5.97136 3.23342,0.30132 3.60782,0.49671 3.50808,1.83078 -0.0496,0.66307 -0.2125,0.83414 -1.06066,1.11361 -0.58722,0.19347 -1.73543,0.25002 -2.77329,0.13657 z m 1.25559,-45.76005 c -1.15401,-0.89081 -3.05397,-3.24231 -3.94444,-4.88187 -0.98471,-1.81308 -1.86766,-5.30538 -1.87625,-7.42105 -0.0124,-3.06418 0.60213,-5.32339 2.22628,-8.18414 2.333,-4.109301 5.32153,-6.445576 9.78655,-7.650604 2.80749,-0.757651 4.4816,-0.821146 7.40253,-0.280574 4.51156,0.834946 8.75953,3.896593 11.09625,7.997438 2.03677,3.57442 2.56709,8.74599 1.2998,12.67525 -0.50278,1.55891 -0.71223,1.88135 -1.32947,2.04674 -0.77893,0.20871 -1.75923,-0.25121 -1.9352,-0.90792 -0.0584,-0.21789 0.11952,-1.18031 0.39534,-2.13874 1.30689,-4.5411 0.10809,-9.53925 -3.11542,-12.989112 -2.32773,-2.491165 -6.56929,-4.226182 -10.07288,-4.120302 -1.9167,0.05792 -5.72483,1.305165 -7.08237,2.319628 -6.9439,5.189016 -7.54474,15.050296 -1.26884,20.824906 1.25146,1.15149 1.3545,1.38613 1.01645,2.3145 -0.38038,1.04458 -1.53088,1.21986 -2.59833,0.39585 z m 14.47965,-31.500272 c -0.79968,-0.461695 -0.72716,-1.588069 0.4152,-6.449405 0.63847,-2.717022 1.08512,-4.983766 0.99255,-5.03721 -0.0926,-0.05344 -0.50196,0.129739 -0.90978,0.407101 -1.24555,0.847064 -2.118,0.953022 -2.80386,0.340523 -0.5475,-0.488935 -0.59493,-0.634506 -0.42091,-1.291917 0.15875,-0.599926 0.75359,-1.091165 3.12665,-2.582117 3.36749,-2.11573 3.5541,-2.190573 4.28506,-1.718516 0.56131,0.362515 3.83077,5.428162 4.06314,6.295376 0.16881,0.629997 -0.42011,1.546874 -1.11281,1.732481 -0.76086,0.203871 -1.48077,-0.291873 -2.17707,-1.499178 -0.33092,-0.573794 -0.66378,-1.025355 -0.73965,-1.003479 -0.0759,0.02199 -0.68398,2.372731 -1.35132,5.224108 -1.19465,5.104488 -1.22681,5.189181 -2.08841,5.499803 -0.48129,0.17351 -1.05673,0.210598 -1.27875,0.08242 z"
       id="path4148" /><text
       xml:space="preserve"
       style="font-weight:900;font-size:25.4px;line-height:0.8;font-family:Arial;-inkscape-font-specification:'Arial Heavy';text-align:center;text-decoration:none;text-decoration-line:none;text-decoration-color:#000000;text-anchor:middle;opacity:0.961977;fill:#ffffff;stroke:none;stroke-width:5.72349;stroke-linecap:square;paint-order:markers stroke fill;stop-color:#000000"
       x="137.91087"
       y="217.35728"
       id="text4251"><tspan
         sodipodi:role="line"
         id="tspan4249"
         style="stroke:none;stroke-width:5.7235"
         x="137.91087"
         y="217.35728">Pinch to Zoom</tspan></text></g></svg>
