<?xml version="1.0" encoding="UTF-8" standalone="no"?>
<svg
   viewBox="0 0 199.98 199.98"
   version="1.1"
   id="svg4"
   sodipodi:docname="rss.svg"
   inkscape:version="1.4 (e7c3feb100, 2024-10-09)"
   xmlns:inkscape="http://www.inkscape.org/namespaces/inkscape"
   xmlns:sodipodi="http://sodipodi.sourceforge.net/DTD/sodipodi-0.dtd"
   xmlns="http://www.w3.org/2000/svg"
   xmlns:svg="http://www.w3.org/2000/svg">
  <sodipodi:namedview
     id="namedview4"
     pagecolor="#505050"
     bordercolor="#ffffff"
     borderopacity="1"
     inkscape:showpageshadow="0"
     inkscape:pageopacity="0"
     inkscape:pagecheckerboard="1"
     inkscape:deskcolor="#505050"
     showgrid="false"
     inkscape:zoom="2.7602761"
     inkscape:cx="99.989998"
     inkscape:cy="99.989998"
     inkscape:window-width="1517"
     inkscape:window-height="767"
     inkscape:window-x="0"
     inkscape:window-y="0"
     inkscape:window-maximized="1"
     inkscape:current-layer="g4" />
  <defs
     id="defs1">
    <style
       id="style1">.cls-1{fill:none;}.cls-2{clip-path:url(#a);}.cls-3{opacity:0.7;}.cls-4{fill:#ef5223;}.cls-5{fill:#ffeed7;}</style>
    <clipPath
       id="a"
       transform="translate(0)">
      <rect
         class="cls-1"
         width="199.98"
         height="199.98"
         id="rect1" />
    </clipPath>
  </defs>
  <g
     data-name="Layer 2"
     id="g4">
    <path
       id="path1"
       class="cls-4"
       d="M 30.390625 0 A 30.39 30.39 0 0 0 0 30.390625 L 0 169.58984 A 30.39 30.39 0 0 0 30.390625 200 L 169.58984 200 A 30.39 30.39 0 0 0 200 169.58984 L 200 30.390625 A 30.39 30.39 0 0 0 169.58984 0 L 30.390625 0 z M 41.109375 34.939453 C 111.82937 34.939453 169.34961 92.75 169.34961 163.75 L 144.66992 163.75 C 144.66992 106.35 98.209375 59.630859 41.109375 59.630859 L 41.109375 34.939453 z M 41.070312 78.699219 C 87.730313 78.699219 125.73047 116.81922 125.73047 163.69922 L 101.05078 163.69922 A 60.13 60.13 0 0 0 83.480469 121 A 59.47 59.47 0 0 0 41.080078 103.40039 L 41.070312 78.699219 z M 58.160156 129.40039 A 17.1 17.1 0 1 1 41.060547 146.5 A 17.1 17.1 0 0 1 58.160156 129.40039 z "
       style="fill:#ffffff" />
  </g>
</svg>
