<?xml version="1.0" encoding="utf8" standalone="no"?>
<!DOCTYPE svg PUBLIC "-//W3C//DTD SVG 1.0//EN" "http://www.w3.org/TR/2001/REC-SVG-20010904/DTD/svg10.dtd">
<svg viewBox="0 0 100 100" xmlns="http://www.w3.org/2000/svg" xmlns:xlink="http://www.w3.org/1999/xlink">
<defs>
<linearGradient id="linearGradient827">
<stop offset="0" stop-color="#02e2ff"/>
<stop offset="1" stop-color="#0079a8"/>
</linearGradient>
<linearGradient id="linearGradient833" x1="-.11765" x2=".47059" xlink:href="#linearGradient827" y1=".04142" y2=".76923"/>
<radialGradient cx=".3" cy=".2071" id="radialGradient844" r=".50003" xlink:href="#linearGradient827"/>
<radialGradient cx=".20588" cy=".19527" id="radialGradient845" r=".53611" xlink:href="#linearGradient827"/>
<radialGradient cx=".21014" cy=".11377" id="radialGradient847" r=".58444" xlink:href="#linearGradient827"/>
</defs>
<path d="m49.866,18.19338c0,6.60875-5.36211,11.97237-11.969,11.97237s-11.969-5.36362-11.969-11.97237 5.36211-11.97237 11.969-11.97237 11.969,5.36362 11.969,11.97237z" fill="url(#radialGradient844)" fill-rule="evenodd"/>
<path d="m9.68062,25.02316c1.33336,15.98921 19.05171,13.91293 33.18737,7.01391 15.75294-7.05754 32.48909-1.28268 31.75971,17.13395" fill="none" stroke="#00007f" stroke-width="2.5"/>
<path d="m30.71329,94.16194c-7.94544-16.54352.42991-30.77449 22.08311-23.09843 7.3164,9.67459 16.51744,18.6218 26.3982,18.52951" fill="none" stroke="#00007f" stroke-width="2.5"/>
<path d="m61.84513,49.23951c1.79966,11.04541 1.29815,20.32949-8.38916,21.90788-8.71989,1.20224-13.11002-7.06631-14.90969-18.11172s-1.51399-20.0758 8.38916-21.90788c9.65263-1.79125 13.11002,7.06631 14.90969,18.11172z" fill="url(#linearGradient833)" fill-rule="evenodd"/>
<path d="m12.8897,23.42496c0,2.07-1.68,3.75-3.75,3.75s-3.75-1.68-3.75-3.75 1.68-3.75 3.75-3.75 3.75,1.68 3.75,3.75z" fill="url(#radialGradient845)" fill-rule="evenodd"/>
<path d="m31.92447,95.54176c-.71435,1.94284-3.9221,2.55335-7.16016,1.36276s-5.28628-3.73365-4.57192-5.67649 3.9221-2.55335 7.16016-1.36276 5.28628,3.73365 4.57193,5.67649z" fill="url(#radialGradient847)" fill-rule="evenodd"/>
<path d="m79.36409,87.68939c1.7556-1.09671 4.66391.38793 6.49176,3.31393s1.88649,6.1908.13089,7.28751-4.6639-.38793-6.49175-3.31393-1.88649-6.1908-.13089-7.28751z" fill="url(#radialGradient847)" fill-rule="evenodd"/>
<path d="m77.76615,51.75549c0,2.07-1.68,3.75-3.75,3.75s-3.75-1.68-3.75-3.75 1.68-3.75 3.75-3.75 3.75,1.68 3.75,3.75z" fill="url(#radialGradient845)" fill-rule="evenodd"/>
</svg>
