<?xml version="1.0" encoding="UTF-8" standalone="no"?>
<svg
   width="41.5mm"
   height="41.5mm"
   viewBox="0 0 41.5 41.5"
   version="1.1"
   id="svg8"
   inkscape:version="1.2.2 (732a01da63, 2022-12-09)"
   inkscape:export-filename=".\Caseys.png"
   inkscape:export-xdpi="156.68434"
   inkscape:export-ydpi="156.68434"
   sodipodi:docname="Caseys.svg"
   xml:space="preserve"
   xmlns:inkscape="http://www.inkscape.org/namespaces/inkscape"
   xmlns:sodipodi="http://sodipodi.sourceforge.net/DTD/sodipodi-0.dtd"
   xmlns="http://www.w3.org/2000/svg"
   xmlns:svg="http://www.w3.org/2000/svg"
   xmlns:rdf="http://www.w3.org/1999/02/22-rdf-syntax-ns#"
   xmlns:cc="http://creativecommons.org/ns#"
   xmlns:dc="http://purl.org/dc/elements/1.1/"><defs
     id="defs2"><clipPath
       clipPathUnits="userSpaceOnUse"
       id="clipPath879"><rect
         style="fill:#ffffff;stroke-width:4.99999;paint-order:stroke fill markers;stop-color:#000000"
         id="rect881"
         width="41.499996"
         height="41.499996"
         x="12.293"
         y="125.48305" /></clipPath><clipPath
       clipPathUnits="userSpaceOnUse"
       id="clipPath384"><rect
         style="fill:#e5e5e5;stroke-width:4.13988;stroke-linecap:round;stroke-linejoin:round;stroke-miterlimit:50;-inkscape-stroke:none;paint-order:markers fill stroke;stop-color:#000000"
         id="rect386"
         width="41.499996"
         height="41.499996"
         x="12.293"
         y="125.48305" /></clipPath></defs><sodipodi:namedview
     id="base"
     pagecolor="#000000"
     bordercolor="#666666"
     borderopacity="1.0"
     inkscape:pageopacity="0"
     inkscape:pageshadow="2"
     inkscape:zoom="4"
     inkscape:cx="72.125"
     inkscape:cy="48.875"
     inkscape:document-units="mm"
     inkscape:current-layer="layer2"
     inkscape:document-rotation="0"
     showgrid="false"
     fit-margin-top="0"
     fit-margin-left="0"
     fit-margin-right="0"
     fit-margin-bottom="0"
     inkscape:snap-page="true"
     inkscape:window-width="1416"
     inkscape:window-height="1020"
     inkscape:window-x="0"
     inkscape:window-y="0"
     inkscape:window-maximized="0"
     inkscape:showpageshadow="0"
     inkscape:pagecheckerboard="1"
     inkscape:deskcolor="#000000" /><metadata
     id="metadata5"><rdf:RDF><cc:Work
         rdf:about=""><dc:format>image/svg+xml</dc:format><dc:type
           rdf:resource="http://purl.org/dc/dcmitype/StillImage" /></cc:Work></rdf:RDF></metadata><g
     inkscape:label="Layer 1"
     inkscape:groupmode="layer"
     id="layer1"
     transform="translate(-12.293,-125.48305)"
     style="display:inline;opacity:0.477564" /><g
     inkscape:groupmode="layer"
     id="layer2"
     inkscape:label="Layer 2"
     style="display:inline"><path
       style="display:inline;opacity:1;fill:#ffffff;stroke-width:0.0532051"
       d="m 32.830179,158.69653 c -13.706596,-0.0123 -14.662329,-0.019 -14.724519,-0.10328 -0.05196,-0.0704 -0.06651,-1.06476 -0.06651,-4.54541 0,-3.9793 -0.0089,-4.4642 -0.08361,-4.53887 -0.166014,-0.16602 -0.334578,-0.10703 -1.466281,0.51314 -0.740381,0.40572 -0.7377,0.40668 -1.147185,-0.40999 -0.169959,-0.33896 -0.351377,-0.69605 -0.403151,-0.79354 -0.05177,-0.0975 -0.08101,-0.21034 -0.06497,-0.25078 0.01604,-0.0404 0.381624,-0.2476 0.812404,-0.46034 1.093509,-0.54004 2.387484,-1.2158 2.672019,-1.39542 0.131682,-0.0831 0.541774,-0.29676 0.911314,-0.47474 0.369541,-0.17797 0.699729,-0.35712 0.733753,-0.39812 0.03402,-0.041 0.12526,-0.0905 0.202748,-0.1099 0.07749,-0.0194 0.202203,-0.0774 0.277145,-0.12871 0.07494,-0.0514 0.243998,-0.13399 0.375681,-0.18366 0.131682,-0.0497 0.359134,-0.15868 0.505448,-0.24225 0.146314,-0.0836 0.601218,-0.32504 1.010898,-0.53659 0.642264,-0.33164 1.408471,-0.74498 1.675961,-0.9041 0.04389,-0.0261 0.283318,-0.14639 0.532052,-0.26728 0.248734,-0.1209 0.571955,-0.2896 0.718269,-0.37491 0.146314,-0.0853 0.349824,-0.19447 0.452243,-0.2426 0.650168,-0.30552 2.242342,-1.12201 3.339259,-1.71241 0.446608,-0.24038 0.82428,-0.43705 0.839272,-0.43705 0.01499,0 0.247983,-0.13169 0.517759,-0.29263 0.269777,-0.16095 0.517943,-0.29263 0.55148,-0.29263 0.10832,0 1.23006,-0.60729 1.395132,-0.75529 0.193545,-0.17354 0.248844,-0.45714 0.204212,-1.04729 -0.04227,-0.55896 -0.105427,-0.60732 -0.761519,-0.58309 -0.451641,0.0167 -0.503758,0.0303 -0.693225,0.18105 -0.321166,0.25554 -0.323972,0.25626 -1.038002,0.26806 -0.853932,0.0141 -0.875976,0.002 -0.785328,-0.43703 0.06205,-0.3004 0.05844,-0.33574 -0.05812,-0.56913 -0.06835,-0.13686 -0.110663,-0.26245 -0.09402,-0.27909 0.01664,-0.0166 0.396477,-0.03 0.844084,-0.0298 0.741511,4.3e-4 0.825931,0.0102 0.949985,0.10997 0.360877,0.29024 0.376237,0.29515 0.923102,0.29515 0.677956,0 0.729397,-0.0476 0.729397,-0.67446 0,-0.23278 -0.02457,-0.46915 -0.05459,-0.52526 -0.03003,-0.0561 -0.180559,-0.1616 -0.334515,-0.23443 -0.440389,-0.20834 -0.709268,-0.47324 -0.940486,-0.92657 -0.303386,-0.59482 -0.408881,-0.70475 -0.721951,-0.75228 -0.144581,-0.022 -0.320875,-0.0179 -0.391763,0.009 -0.165209,0.0628 -0.270152,0.0217 -0.270152,-0.10564 0,-0.13736 0.543412,-0.53524 0.876909,-0.64207 0.327701,-0.10498 0.374547,-0.2456 0.150905,-0.45297 -0.180853,-0.1677 -0.398671,-0.21358 -0.844147,-0.17782 -0.186014,0.0149 -0.350366,0.015 -0.365225,1.1e-4 -0.04154,-0.0416 0.103363,-0.29227 0.245771,-0.42524 0.07014,-0.0655 0.241171,-0.15329 0.380066,-0.19509 0.356909,-0.10739 0.513414,-0.22246 0.513414,-0.37747 0,-0.27248 -0.320051,-0.33859 -1.117308,-0.23081 -0.103571,0.014 -0.136716,-0.008 -0.149743,-0.0996 -0.02846,-0.2001 0.478626,-0.6358 0.886918,-0.76208 0.423858,-0.13109 0.550233,-0.13074 0.982222,0.003 0.289218,0.0893 0.389279,0.15382 0.598548,0.38574 0.372543,0.41287 0.415569,0.54617 0.416172,1.28937 3.72e-4,0.4589 -0.02603,0.72692 -0.09386,0.95298 -0.09175,0.30576 -0.09153,0.31834 0.008,0.45224 0.14108,0.18974 0.475981,0.21506 0.73415,0.0555 0.227395,-0.14053 0.442018,-0.58393 0.610224,-1.26067 0.06371,-0.25634 0.149121,-0.54681 0.189794,-0.64549 0.103019,-0.24994 0.0937,-0.33187 -0.06165,-0.54182 l -0.135596,-0.18325 0.219854,-0.20559 c 0.212935,-0.19912 0.22977,-0.20488 0.53491,-0.1828 0.364797,0.0264 0.718196,0.23552 0.839998,0.49711 0.04029,0.0865 0.131301,0.21976 0.202253,0.29608 0.122857,0.13217 0.125212,0.14738 0.04942,0.31923 -0.04377,0.0993 -0.09421,0.2715 -0.112079,0.38277 -0.03966,0.24692 -0.151754,0.30088 -0.312089,0.15025 -0.144829,-0.13606 -0.261714,-0.14362 -0.38071,-0.0246 -0.119739,0.11974 -0.06923,0.3464 0.134517,0.60365 0.446527,0.56378 0.425178,1.27104 -0.05674,1.87986 -0.288251,0.36416 -0.438575,0.47703 -1.005557,0.75505 -0.67678,0.33185 -0.693863,0.35408 -0.693863,0.90273 0,0.53658 0.06547,0.63645 0.455576,0.69495 0.308692,0.0463 0.935916,-0.002 1.088866,-0.0839 0.06233,-0.0334 0.137719,-0.13062 0.167532,-0.21614 0.07232,-0.20748 0.212563,-0.20181 0.58706,0.0237 0.163669,0.0985 0.376675,0.20676 0.473344,0.24046 0.238661,0.0832 0.420247,0.20755 0.418421,0.28654 -0.0019,0.0803 -0.468118,0.36037 -0.809319,0.48615 -0.138696,0.0511 -0.265806,0.11501 -0.282467,0.14197 -0.01666,0.027 -0.09834,0.049 -0.181513,0.049 -0.116551,0 -0.17652,-0.0429 -0.261574,-0.18704 -0.143535,-0.24327 -0.286301,-0.29181 -0.858346,-0.29181 -0.422684,0 -0.48813,0.0135 -0.621696,0.12841 -0.145963,0.12555 -0.149281,0.14084 -0.149281,0.68776 0,0.77016 -0.04356,0.71887 1.145122,1.34846 0.220137,0.1166 0.471531,0.22944 0.558653,0.25076 0.142032,0.0348 0.240688,0.09 0.717058,0.40176 0.07316,0.0479 0.420321,0.23357 0.771475,0.41266 0.351153,0.1791 0.782115,0.40652 0.957692,0.50538 0.175577,0.0989 0.642452,0.34304 1.0375,0.5426 0.395048,0.19956 0.885865,0.45385 1.090705,0.56509 0.20484,0.11123 0.410994,0.20435 0.45812,0.20693 0.04713,0.003 0.170355,0.0621 0.27384,0.13236 0.103486,0.0702 0.242843,0.14505 0.309682,0.16626 0.06684,0.0212 0.212656,0.10458 0.324037,0.18527 0.111381,0.0807 0.364428,0.2141 0.562326,0.29649 0.197898,0.0824 0.461949,0.2183 0.586777,0.30204 0.12483,0.0837 0.54382,0.3141 0.93109,0.51193 0.387271,0.19782 1.326628,0.679 2.087461,1.06929 1.656396,0.84967 2.305801,1.17181 2.362311,1.17181 0.02312,0 0.08764,0.0505 0.143385,0.11231 0.05575,0.0618 0.364721,0.23726 0.686612,0.38996 0.321891,0.15271 0.74643,0.37576 0.943419,0.49566 0.19699,0.1199 0.410871,0.23472 0.47529,0.25517 0.06442,0.0205 0.224048,0.094 0.354729,0.16351 0.130681,0.0695 0.26624,0.12633 0.30124,0.12633 0.035,0 0.105024,0.0457 0.155607,0.10163 0.05058,0.0559 0.155915,0.11767 0.23407,0.13729 0.291917,0.0733 0.361578,0.27524 0.176618,0.51208 -0.0545,0.0698 -0.117412,0.18674 -0.139805,0.2599 -0.02239,0.0732 -0.09503,0.22878 -0.161409,0.34584 -0.06638,0.11705 -0.138507,0.27217 -0.160275,0.34471 -0.05357,0.17852 -0.299765,0.47996 -0.391999,0.47996 -0.04108,0 -0.22065,-0.0815 -0.399039,-0.18117 -1.142956,-0.63845 -1.506358,-0.77034 -1.670433,-0.60626 -0.04863,0.0486 -0.06385,1.11704 -0.06385,4.48399 0,4.72164 0.0061,4.60922 -0.251097,4.66332 -0.0521,0.011 -6.690842,0.014 -14.75275,0.007 z m 5.652065,-2.03072 c 0.421838,-0.098 1.240084,-0.76532 1.580253,-1.28883 0.416439,-0.64089 0.841131,-1.59988 0.998132,-2.25387 0.04215,-0.17557 0.121138,-0.43894 0.175529,-0.58525 0.05439,-0.14632 0.115536,-0.34983 0.135878,-0.45225 0.02034,-0.10242 0.07397,-0.25804 0.119172,-0.34583 0.07973,-0.15485 0.201849,-0.67589 0.359778,-1.53508 0.131148,-0.71349 -0.0042,-1.1311 -0.467921,-1.44336 -0.152937,-0.103 -0.332257,-0.18726 -0.398489,-0.18726 -0.158461,0 -0.333243,0.17966 -0.333243,0.34254 0,0.1466 -0.22213,0.89176 -0.373693,1.25361 -0.20934,0.49978 -0.384065,0.94216 -0.493837,1.25032 -0.175983,0.49404 -0.807866,1.47604 -0.934369,1.4521 -0.149011,-0.0282 -0.139451,-0.36149 0.01698,-0.59201 0.07456,-0.10986 0.135558,-0.22192 0.135558,-0.24902 0,-0.0271 0.05756,-0.17567 0.127901,-0.33017 0.07035,-0.15449 0.153551,-0.37667 0.184899,-0.49372 0.03135,-0.11705 0.0931,-0.26418 0.137227,-0.32694 0.04413,-0.0628 0.143067,-0.31304 0.21987,-0.55617 0.172506,-0.54608 0.157235,-0.85465 -0.05764,-1.16472 -0.263464,-0.38017 -1.024107,-0.71496 -1.184722,-0.52143 -0.03443,0.0415 -0.08615,0.27741 -0.114925,0.52427 -0.06882,0.59037 -0.28472,1.20314 -0.712329,2.02179 -0.366004,0.7007 -0.67528,1.60542 -0.67528,1.9754 0,0.26613 0.224045,0.74308 0.430762,0.91702 0.229101,0.19278 0.53545,0.25997 0.990746,0.2173 0.242163,-0.0227 0.387467,-0.0168 0.387467,0.0158 0,0.11912 -0.315544,0.37765 -0.535771,0.43897 -0.360968,0.1005 -0.981695,0.0796 -1.371938,-0.0461 -0.185986,-0.0599 -0.373373,-0.0955 -0.416415,-0.0789 -0.122177,0.0469 -0.176517,0.25489 -0.176517,0.67568 0,0.30093 0.02713,0.43851 0.121757,0.61745 0.146029,0.27615 0.535929,0.61935 0.817794,0.71985 0.229801,0.0819 1.0052,0.0991 1.307385,0.0289 z m -15.806803,-1.78385 c 0.58582,-0.12416 1.210969,-0.67287 1.401536,-1.23015 0.123558,-0.36132 0.164309,-0.96723 0.08185,-1.21707 -0.06173,-0.18704 -0.07721,-0.19823 -0.231676,-0.16734 -0.09104,0.0182 -0.23801,0.10126 -0.326603,0.18455 -0.194344,0.18272 -0.442716,0.27213 -0.755982,0.27213 -0.315208,0 -0.558854,-0.11097 -0.738782,-0.33646 -0.451347,-0.56566 -0.37527,-1.55849 0.210162,-2.74268 0.289358,-0.58531 0.376168,-0.70921 0.782835,-1.11731 0.251564,-0.25245 0.5193,-0.49211 0.594969,-0.53258 0.171734,-0.0918 0.329933,-0.0423 0.279055,0.0873 -0.150288,0.383 -0.165925,1.08195 -0.03086,1.37944 0.182553,0.40209 0.909207,0.69906 1.141678,0.46659 0.04521,-0.0452 0.109077,-0.18288 0.141925,-0.30593 0.03285,-0.12305 0.117278,-0.35013 0.187624,-0.50463 0.07034,-0.1545 0.127901,-0.29584 0.127901,-0.3141 0,-0.0182 0.06192,-0.16408 0.1376,-0.32405 0.201973,-0.42694 0.235446,-0.98458 0.07856,-1.30867 -0.138822,-0.28677 -0.522637,-0.62465 -0.887024,-0.78087 -0.455474,-0.19527 -1.057342,-0.095 -1.858832,0.30955 -0.701074,0.3539 -1.266667,0.88297 -1.806518,1.68986 -0.175577,0.26242 -0.339417,0.48586 -0.36409,0.49652 -0.05826,0.0252 -0.328606,0.62342 -0.496159,1.09792 -0.292307,0.8278 -0.398475,1.31735 -0.427175,1.96973 -0.0251,0.57047 -0.01355,0.6941 0.106814,1.14391 0.15014,0.56107 0.437799,1.09565 0.709657,1.31882 0.411941,0.33817 0.512552,0.39233 0.855616,0.46057 0.473067,0.0941 0.661165,0.095 1.085919,0.005 z m 8.61179,-0.29802 c 0.190208,-0.0301 0.410705,-0.10175 0.489993,-0.15922 0.07929,-0.0575 0.169002,-0.10449 0.199366,-0.10449 0.1215,0 0.489445,-0.40219 0.64126,-0.70094 0.140102,-0.27571 0.161527,-0.37537 0.164385,-0.76465 0.0043,-0.59227 -0.101989,-0.80037 -0.741118,-1.45032 -0.516327,-0.52507 -0.594271,-0.64745 -0.594271,-0.93309 0,-0.23854 0.28231,-0.61358 0.465545,-0.61846 0.07377,-0.002 0.08026,0.0319 0.0677,0.35278 -0.0157,0.40111 0.274439,0.76256 0.704059,0.87713 0.216772,0.0578 0.264539,0.0559 0.333477,-0.013 0.11015,-0.11015 0.504491,-1.28455 0.503047,-1.49815 -0.0029,-0.42362 -0.444176,-0.93374 -0.935789,-1.08169 -0.205352,-0.0618 -0.296534,-0.0602 -0.64859,0.0116 -0.77071,0.1571 -1.450286,0.64706 -1.769438,1.27573 -0.161079,0.31729 -0.183071,0.40922 -0.182451,0.76266 9.95e-4,0.56616 0.0807,0.77988 0.428683,1.14951 0.606578,0.64428 0.66023,0.77464 0.418367,1.01651 -0.108973,0.10897 -0.169506,0.12994 -0.299827,0.10388 -0.261349,-0.0523 -0.516324,-0.2397 -0.630471,-0.46344 -0.137636,-0.26979 -0.263473,-0.26704 -0.467364,0.0102 -0.321939,0.43777 -0.368575,1.30872 -0.08966,1.67439 0.392361,0.51442 1.033679,0.69695 1.94309,0.55306 z m 3.937179,-0.0162 c 0.694334,-0.16613 1.454274,-0.97797 1.454274,-1.55361 0,-0.34465 -0.202106,-0.42772 -0.576389,-0.2369 -0.227764,0.11612 -0.766716,0.14604 -1.004199,0.0558 -0.202014,-0.0768 -0.27717,-0.25249 -0.162309,-0.37941 0.05076,-0.0561 0.130483,-0.10229 0.177158,-0.10267 0.04667,-3.7e-4 0.228517,-0.0466 0.404093,-0.10269 0.875274,-0.27967 1.664618,-0.84811 1.938332,-1.39586 0.153095,-0.30637 0.163198,-0.36351 0.162103,-0.91679 -0.0015,-0.73261 -0.08231,-0.9466 -0.449616,-1.1899 -0.293954,-0.1947 -0.591722,-0.251 -1.101509,-0.20827 -0.586336,0.0492 -0.958477,0.26794 -1.594875,0.93761 -0.707683,0.74469 -1.034571,1.3773 -1.376447,2.66377 -0.02722,0.10242 -0.05006,0.44977 -0.05076,0.7719 -0.0011,0.53003 0.01197,0.61091 0.138032,0.85128 0.164665,0.31396 0.284231,0.45222 0.550921,0.63704 0.328894,0.22792 0.950055,0.29821 1.491188,0.16875 z m -0.249493,-3.42032 c -0.01942,-0.0506 0.04103,-0.22271 0.144854,-0.41234 0.456458,-0.83376 0.89601,-1.19491 1.066531,-0.87629 0.09364,0.17497 -0.01683,0.46009 -0.309461,0.79873 -0.434071,0.50231 -0.817286,0.71046 -0.901924,0.4899 z m 9.058472,3.43391 c 0.509947,-0.0938 1.027977,-0.45721 1.258261,-0.88265 0.447168,-0.82611 0.255362,-1.64691 -0.546708,-2.33952 -0.354176,-0.30584 -0.525054,-0.57523 -0.52747,-0.83155 -0.0028,-0.29335 0.284989,-0.78307 0.460123,-0.78307 0.05202,0 0.07074,0.10126 0.07132,0.38574 9.58e-4,0.47062 0.05863,0.59163 0.390763,0.8199 0.485157,0.33345 0.733525,0.2172 0.935908,-0.43804 0.19986,-0.64707 0.241761,-0.94897 0.166549,-1.2 -0.119987,-0.40048 -0.709243,-0.83676 -1.152864,-0.85357 -0.616921,-0.0234 -1.302102,0.28661 -1.812822,0.82013 -0.444406,0.46424 -0.609873,0.76648 -0.642151,1.17292 -0.03993,0.50276 0.04514,0.72541 0.45687,1.19572 0.466598,0.533 0.539656,0.64416 0.539656,0.82113 0,0.10832 -0.04084,0.16753 -0.156974,0.22759 -0.294379,0.15223 -0.638769,0.0617 -1.047231,-0.27524 -0.284526,-0.23471 -0.398736,-0.29042 -0.485495,-0.2368 -0.118353,0.0731 -0.332113,0.76182 -0.330599,1.06509 0.0023,0.45483 0.248088,0.8779 0.646808,1.11321 0.440756,0.26012 1.106434,0.34221 1.776059,0.21901 z m -15.279405,-0.0966 c 0.07425,-0.0616 0.08229,-0.15408 0.05542,-0.63709 -0.02312,-0.41553 -0.0091,-0.67058 0.05317,-0.96405 0.04653,-0.21947 0.119219,-0.5786 0.161524,-0.79808 0.04231,-0.21947 0.125885,-0.49388 0.185731,-0.6098 0.05985,-0.11593 0.109189,-0.27155 0.109649,-0.34584 4.79e-4,-0.0743 0.09748,-0.4104 0.215601,-0.74692 0.265137,-0.75537 0.288078,-0.86352 0.212956,-1.00389 -0.03286,-0.0614 -0.190795,-0.17362 -0.350976,-0.24939 -0.160181,-0.0758 -0.291238,-0.15465 -0.291238,-0.17526 0,-0.11061 -0.332935,-0.38002 -0.53778,-0.43518 -0.234445,-0.0631 -0.875363,4.2e-4 -1.136532,0.11269 -0.572061,0.24592 -1.381758,0.94297 -1.933659,1.66464 -0.402953,0.5269 -0.753338,1.17521 -0.756018,1.39883 -6.44e-4,0.0536 -0.0521,0.20524 -0.114347,0.33692 -0.09104,0.1926 -0.118062,0.37216 -0.138146,0.91811 l -0.02497,0.67868 0.170808,0.28183 c 0.209384,0.34548 0.550414,0.57636 0.898047,0.60797 0.464466,0.0422 1.283986,-0.46887 1.415328,-0.88269 0.05718,-0.18014 0.127216,-0.13578 0.260778,0.16517 0.153602,0.34611 0.377379,0.6163 0.590324,0.71277 0.20165,0.0914 0.832227,0.0719 0.954327,-0.0294 z m -2.335132,-1.83406 c -0.09267,-0.0678 -0.09592,-0.10616 -0.04289,-0.5078 0.03155,-0.23897 0.09209,-0.47533 0.134529,-0.52525 0.04244,-0.0499 0.109863,-0.17456 0.149828,-0.27698 0.09142,-0.23428 0.382681,-0.70182 0.622847,-0.99979 0.203913,-0.253 0.678544,-0.59636 0.824349,-0.59636 0.190392,0 0.126685,0.19495 -0.443356,1.35673 -0.143582,0.29263 -0.261023,0.54886 -0.26098,0.56941 1.07e-4,0.0573 -0.460726,0.70355 -0.633843,0.88887 -0.173177,0.18539 -0.208916,0.19468 -0.350483,0.0912 z m 16.416268,-3.41286 c 0.206715,-0.1069 0.561048,-0.55864 0.750224,-0.95646 0.178564,-0.37551 0.207147,-0.82852 0.06508,-1.03136 -0.115611,-0.16506 -0.582368,-0.37741 -0.830977,-0.37806 -0.324503,-8.4e-4 -0.3901,0.11027 -0.433023,0.73348 -0.02383,0.34603 -0.0836,0.67448 -0.167784,0.92197 -0.158406,0.46574 -0.161333,0.54808 -0.02435,0.68506 0.128834,0.12883 0.418582,0.1403 0.640838,0.0254 z"
       id="path404"
       transform="translate(-12.293,-125.48305)" /></g></svg>
