<?xml version="1.0" encoding="UTF-8" standalone="no"?>
<svg
   width="41.5mm"
   height="41.5mm"
   viewBox="0 0 41.5 41.5"
   version="1.1"
   id="svg8"
   inkscape:version="1.3.2 (091e20ef0f, 2023-11-25, custom)"
   inkscape:export-filename="./Devil May Cry Peak of Combat.png"
   inkscape:export-xdpi="156.68434"
   inkscape:export-ydpi="156.68434"
   sodipodi:docname="Devil May Cry Peak of Combat.svg"
   xml:space="preserve"
   xmlns:inkscape="http://www.inkscape.org/namespaces/inkscape"
   xmlns:sodipodi="http://sodipodi.sourceforge.net/DTD/sodipodi-0.dtd"
   xmlns="http://www.w3.org/2000/svg"
   xmlns:svg="http://www.w3.org/2000/svg"
   xmlns:rdf="http://www.w3.org/1999/02/22-rdf-syntax-ns#"
   xmlns:cc="http://creativecommons.org/ns#"
   xmlns:dc="http://purl.org/dc/elements/1.1/"><sodipodi:namedview
     id="base"
     pagecolor="#000000"
     bordercolor="#666666"
     borderopacity="1.0"
     inkscape:pageopacity="0"
     inkscape:pageshadow="2"
     inkscape:zoom="5.0185181"
     inkscape:cx="19.82657"
     inkscape:cy="124.73802"
     inkscape:document-units="mm"
     inkscape:current-layer="layer2"
     inkscape:document-rotation="0"
     showgrid="false"
     fit-margin-top="0"
     fit-margin-left="0"
     fit-margin-right="0"
     fit-margin-bottom="0"
     inkscape:snap-page="true"
     inkscape:window-width="1920"
     inkscape:window-height="1050"
     inkscape:window-x="0"
     inkscape:window-y="330"
     inkscape:window-maximized="1"
     inkscape:showpageshadow="0"
     inkscape:pagecheckerboard="1"
     inkscape:deskcolor="#000000" /><defs
     id="defs2"><clipPath
       clipPathUnits="userSpaceOnUse"
       id="clipPath879"><rect
         style="fill:#ffffff;stroke-width:4.99999;paint-order:stroke fill markers;stop-color:#000000"
         id="rect881"
         width="41.499996"
         height="41.499996"
         x="12.293"
         y="125.48305" /></clipPath><clipPath
       clipPathUnits="userSpaceOnUse"
       id="clipPath384"><rect
         style="fill:#e5e5e5;stroke-width:4.13988;stroke-linecap:round;stroke-linejoin:round;stroke-miterlimit:50;-inkscape-stroke:none;paint-order:markers fill stroke;stop-color:#000000"
         id="rect386"
         width="41.499996"
         height="41.499996"
         x="12.293"
         y="125.48305" /></clipPath></defs><metadata
     id="metadata5"><rdf:RDF><cc:Work
         rdf:about=""><dc:format>image/svg+xml</dc:format><dc:type
           rdf:resource="http://purl.org/dc/dcmitype/StillImage" /></cc:Work></rdf:RDF></metadata><g
     inkscape:label="Layer 1"
     inkscape:groupmode="layer"
     id="layer1"
     transform="translate(-12.293,-125.48305)"
     style="display:inline;opacity:0.477564" /><g
     inkscape:groupmode="layer"
     id="layer2"
     inkscape:label="Layer 2"
     style="display:inline"><path
       style="display:inline;opacity:1;fill:#ffffff;stroke-width:0.190057"
       d="m 25.169561,35.383299 c -0.146943,-0.02375 -0.322848,-0.08277 -0.390899,-0.131149 l -0.12373,-0.08796 0.02995,-0.226287 c 0.01647,-0.124456 0.08363,-0.497828 0.149236,-0.829714 0.06561,-0.331886 0.133415,-0.705258 0.150685,-0.829716 0.01727,-0.124457 0.05192,-0.3168 0.077,-0.427428 0.06152,-0.271342 0.06011,-0.816338 -0.0022,-0.854859 -0.02766,-0.01709 -0.05037,-0.08066 -0.05048,-0.141253 -2.85e-4,-0.171319 -0.170337,-0.409416 -0.406071,-0.56858 -0.118135,-0.07976 -0.313035,-0.246854 -0.433112,-0.37131 -0.120076,-0.124459 -0.319151,-0.386772 -0.442388,-0.582924 l -0.224067,-0.356637 0.04476,-0.14622 c 0.02462,-0.08042 0.08069,-0.259364 0.12459,-0.39765 0.04391,-0.138285 0.07972,-0.278685 0.07958,-0.312 -1.36e-4,-0.03332 -0.05651,-0.116839 -0.125285,-0.185609 l -0.125038,-0.125038 -0.490963,0.239222 c -0.27003,0.131572 -0.570163,0.269737 -0.666964,0.307035 -0.0968,0.0373 -0.209943,0.09549 -0.251429,0.129331 -0.132934,0.108421 -0.568937,0.285606 -0.768748,0.312405 -0.127817,0.01714 -0.219505,0.06544 -0.2697,0.142039 -0.04183,0.06384 -0.110021,0.246159 -0.151543,0.405166 -0.07827,0.299722 -0.418707,0.969033 -0.547082,1.075575 -0.07434,0.06169 -0.480329,0.742678 -0.688625,1.155049 -0.06255,0.123837 -0.192933,0.278655 -0.289733,0.344038 l -0.176,0.118881 -0.502858,-0.03249 c -0.276571,-0.01786 -0.706515,-0.04412 -0.955429,-0.05835 -0.568527,-0.03246 -1.828416,-0.20224 -2.008275,-0.270623 -0.07448,-0.02832 -0.244581,-0.05149 -0.378002,-0.05149 -0.159274,0 -0.28123,0.03129 -0.355115,0.09112 -0.08088,0.06549 -0.103015,0.1211 -0.0787,0.197711 0.01861,0.05863 0.136401,0.1667 0.261764,0.240169 0.125364,0.07346 0.218218,0.143295 0.206343,0.15517 -0.01188,0.01188 -0.165796,-0.01536 -0.342046,-0.06051 -0.176251,-0.04516 -0.377626,-0.08766 -0.447501,-0.09445 -0.06988,-0.0068 -0.244887,-0.02961 -0.388917,-0.05069 -0.144031,-0.02109 -0.302432,-0.02146 -0.352001,-7.6e-4 -0.06448,0.02684 0.01573,0.0643 0.281972,0.131684 0.204654,0.05179 0.447205,0.151456 0.539,0.221473 0.107967,0.08235 0.186242,0.199128 0.221674,0.330713 0.03012,0.111877 0.04781,0.275322 0.03929,0.363211 l -0.01549,0.1598 -1.282287,-0.01015 c -0.705258,-0.0056 -1.493417,-0.0248 -1.751465,-0.04271 l -0.469178,-0.03255 -0.134251,-0.205072 C 11.147163,33.801043 10.705375,33.343581 10.4468,33.146017 L 10.291196,33.027129 H 8.988743 c -1.5165215,0 -3.0230852,-0.07241 -3.6663442,-0.176239 C 5.0734846,32.81072 4.756684,32.76275 4.6183981,32.74431 L 4.3669692,32.71077 4.844684,32.589281 c 0.2627434,-0.06682 0.5569149,-0.144228 0.6537148,-0.172022 0.096801,-0.0278 0.2565247,-0.06783 0.3549428,-0.08896 0.098417,-0.02114 0.2907613,-0.07553 0.4274289,-0.12088 0.1366676,-0.04535 0.4068871,-0.131186 0.6004867,-0.190752 0.3089004,-0.09504 0.5967004,-0.212995 1.4722039,-0.603363 0.1182828,-0.05273 0.2507198,-0.09589 0.2943036,-0.09589 0.043587,0 0.1844076,-0.05399 0.3129413,-0.119986 0.1285329,-0.066 0.6315531,-0.315986 1.117822,-0.555541 0.588268,-0.289804 1.041878,-0.554018 1.355547,-0.789565 0.259283,-0.194705 0.642113,-0.468497 0.850734,-0.608426 0.208622,-0.139929 0.469827,-0.326007 0.580455,-0.413507 0.110629,-0.0875 0.269029,-0.201014 0.352001,-0.252251 0.08297,-0.05124 0.309257,-0.232937 0.502857,-0.403775 0.1936,-0.170836 0.487772,-0.402915 0.653715,-0.515731 0.165943,-0.112814 0.472466,-0.370998 0.681161,-0.573741 0.208695,-0.202743 0.474051,-0.504397 0.589679,-0.670339 0.65021,-0.933143 0.878613,-1.304585 1.066783,-1.734857 0.114904,-0.262744 0.355344,-0.839775 0.534312,-1.282288 0.381152,-0.942437 0.817325,-1.849089 1.161193,-2.413717 0.13475,-0.221258 0.422455,-0.628572 0.639347,-0.905144 0.21689,-0.276572 0.409157,-0.514171 0.42726,-0.527999 0.0181,-0.01384 0.281151,-0.319316 0.584552,-0.67886 0.835894,-0.990568 1.736673,-1.814133 2.310927,-2.112838 0.05519,-0.02871 0.153059,-0.147749 0.217482,-0.264537 0.07104,-0.128784 0.15311,-0.212341 0.208558,-0.212341 0.137057,0 0.160116,-0.129514 0.03531,-0.198345 -0.06002,-0.0331 -0.185186,-0.162802 -0.278146,-0.288221 -0.112342,-0.15157 -0.247237,-0.26107 -0.402286,-0.326556 -0.128298,-0.05418 -0.287682,-0.125345 -0.354188,-0.158129 -0.06651,-0.03278 -0.150541,-0.130457 -0.186746,-0.217052 l -0.06583,-0.157447 -0.21554,-0.02903 c -0.118546,-0.01597 -0.367307,-0.04382 -0.552799,-0.0619 l -0.33726,-0.03286 -0.01474,-0.333802 -0.01474,-0.333804 -0.125714,-0.0164 c -0.06914,-0.009 -0.211193,-0.08412 -0.315667,-0.166908 -0.104474,-0.08278 -0.353388,-0.218951 -0.553143,-0.302596 -0.670025,-0.280571 -0.814058,-0.351007 -1.176127,-0.575176 -0.1982,-0.122709 -0.624357,-0.350053 -0.947014,-0.505204 l -0.586651,-0.282095 -0.511272,-0.06392 c -0.281201,-0.03515 -0.579118,-0.09039 -0.662039,-0.122742 -0.08292,-0.03235 -0.190407,-0.0947 -0.238858,-0.138548 -0.05244,-0.04746 -0.08838,-0.15288 -0.08882,-0.260499 l -6.93e-4,-0.180789 -0.259497,-0.14318 C 14.799906,11.307952 14.093088,10.965365 13.371923,10.625396 12.650759,10.285426 11.596829,9.7813027 11.029857,9.5051207 10.462885,9.2289382 9.7387698,8.8847175 9.4207123,8.7401853 9.1026543,8.5956531 8.3672255,8.2449431 7.7864249,7.9608296 7.2056243,7.6767164 6.4055113,7.3012585 6.0083965,7.1264788 L 5.2863695,6.8086978 5.2114488,6.6298586 C 5.170242,6.5314972 5.1069432,6.3906726 5.070785,6.3169153 L 5.0050443,6.182811 5.27835,6.135724 5.5516556,6.0886371 6.1562802,6.2043777 6.7609055,6.3201182 7.3490949,6.5926628 c 0.3235044,0.1498994 1.9459049,0.9001581 3.6053351,1.6672414 1.659431,0.7670832 3.36789,1.5599765 3.796576,1.7619858 0.464397,0.218837 0.981048,0.420412 1.278257,0.498721 l 0.498828,0.131432 0.165094,-0.05449 c 0.0908,-0.02997 0.258283,-0.05577 0.372182,-0.05734 l 0.207089,-0.0029 0.150827,0.144263 c 0.08295,0.07935 0.209396,0.251749 0.280982,0.38312 0.07158,0.131372 0.159337,0.238858 0.195002,0.238858 0.03566,0 0.128004,0.05853 0.205197,0.130072 0.07719,0.07154 0.210778,0.159499 0.296856,0.195465 0.08608,0.03597 0.256028,0.08181 0.377669,0.101883 0.121641,0.02007 0.379564,0.111408 0.573165,0.202974 0.247243,0.116938 0.456757,0.175555 0.704001,0.196966 0.1936,0.01677 0.499085,0.08487 0.678857,0.151345 0.179772,0.06647 0.557736,0.192301 0.83992,0.279618 l 0.513063,0.158762 0.29151,-0.177952 c 0.34263,-0.209159 0.566127,-0.277925 0.572053,-0.176013 0.0022,0.03757 0.0114,0.309131 0.02047,0.603466 0.0091,0.294336 0.04203,0.582851 0.07322,0.641143 0.03129,0.05847 0.106651,0.106208 0.168096,0.10648 0.19613,9.6e-4 0.6074,0.232064 0.838415,0.471325 l 0.224185,0.232183 h 0.204627 c 0.112545,0 0.253064,0.03393 0.312264,0.07539 0.0592,0.04147 0.156594,0.154609 0.216433,0.25143 l 0.108797,0.176038 h 0.256594 c 0.156826,0 0.340315,0.04053 0.471916,0.104236 0.118428,0.05733 0.326455,0.225831 0.462281,0.374447 l 0.246958,0.270211 0.161514,0.518127 c 0.08883,0.284967 0.170881,0.548451 0.182331,0.585518 0.01145,0.03707 0.0038,0.09364 -0.01706,0.125715 -0.02083,0.03208 -0.03788,0.149156 -0.03788,0.260177 v 0.201858 l 0.509143,-0.01876 0.509143,-0.01876 0.439473,0.214705 c 0.24171,0.118089 0.507494,0.271942 0.59063,0.341897 0.08609,0.07244 0.243369,0.323289 0.365381,0.582766 0.209641,0.445826 0.45497,1.331149 0.419668,1.514459 -0.01231,0.06392 -0.09052,0.108667 -0.254027,0.145313 -0.139905,0.03136 -0.310184,0.118884 -0.417567,0.214638 -0.103117,0.09195 -0.261415,0.174803 -0.367012,0.192088 -0.630052,0.10314 -0.713312,0.133139 -0.980845,0.353386 l -0.271025,0.223122 h -0.177324 c -0.09753,0 -0.205494,-0.03394 -0.239924,-0.07543 -0.08323,-0.100284 -0.332761,-0.09753 -0.371763,0.0041 -0.01679,0.04375 -0.03065,0.128606 -0.03081,0.188572 -1.53e-4,0.05997 -0.02385,0.193889 -0.05265,0.297602 l -0.05237,0.188573 h -0.490883 c -0.51188,0 -0.637844,-0.0418 -0.669292,-0.22212 -0.0093,-0.05302 -0.0451,-0.105823 -0.07967,-0.117333 -0.04399,-0.01466 -0.06238,0.0445 -0.06126,0.196976 8.81e-4,0.119848 0.03482,0.26183 0.07543,0.315515 0.04061,0.05369 0.07383,0.183045 0.07383,0.287466 v 0.189853 l -0.226286,0.254786 c -0.13239,0.149065 -0.226286,0.304064 -0.226286,0.373543 0,0.06532 0.05532,0.172005 0.122939,0.237082 0.06792,0.06538 0.242313,0.144637 0.389715,0.177125 0.146726,0.03234 0.425176,0.119505 0.618776,0.193699 0.204632,0.07843 0.576503,0.163115 0.888243,0.202293 0.380735,0.04785 0.628641,0.110113 0.854859,0.214707 0.175238,0.08102 0.477015,0.175519 0.670615,0.209995 0.1936,0.03447 0.476457,0.110037 0.628572,0.167918 0.19041,0.07246 0.372425,0.199876 0.58425,0.409012 l 0.307677,0.303771 0.144894,0.377144 0.144895,0.377142 0.409404,0.406902 0.409407,0.406899 -0.02139,0.1211 c -0.01177,0.0666 0.01897,0.181226 0.06831,0.254716 0.04933,0.07349 0.216436,0.322402 0.371338,0.553142 0.154902,0.230741 0.320846,0.510045 0.368767,0.620673 0.04792,0.110628 0.119936,0.277038 0.160038,0.369797 0.0401,0.09276 0.08665,0.273789 0.103442,0.402286 0.01678,0.128497 0.06142,0.294981 0.09917,0.369962 0.03775,0.07498 0.171108,0.196377 0.296341,0.26977 0.125234,0.07339 0.261554,0.198909 0.302932,0.278927 l 0.07523,0.145484 0.145252,-0.107389 c 0.104261,-0.07708 0.245751,-0.114581 0.501362,-0.13287 l 0.356106,-0.02548 -0.0017,0.06961 c -9.6e-4,0.03829 -0.0316,0.3083 -0.06822,0.600026 -0.03662,0.291726 -0.09246,0.578754 -0.124078,0.637838 -0.03162,0.05908 -0.0575,0.155293 -0.0575,0.213801 0,0.180897 0.144675,0.39793 0.352876,0.52936 0.118168,0.0746 0.229503,0.198362 0.273791,0.304358 0.118219,0.282937 0.266146,0.460522 0.414664,0.497798 0.07551,0.01895 0.262451,0.111287 0.415414,0.205188 l 0.278115,0.17073 0.427429,0.03369 c 0.245791,0.01937 0.502221,0.07149 0.60343,0.122654 0.228953,0.115738 0.505757,0.429262 0.698303,0.790937 l 0.06094,0.114469 -0.107242,0.150607 c -0.05898,0.08283 -0.190214,0.188937 -0.291622,0.235783 l -0.184382,0.08518 -0.854859,-0.0019 -0.854858,-0.0019 -0.452572,-0.142744 c -0.248913,-0.07851 -0.539186,-0.152962 -0.645049,-0.165449 -0.106119,-0.01253 -0.313904,0.01549 -0.4631,0.06242 l -0.270617,0.08512 -0.654936,-0.01662 -0.654937,-0.01661 -0.154769,-0.154912 -0.154766,-0.154911 0.0011,-0.674805 c 5.7e-4,-0.371142 -0.01161,-0.747049 -0.02712,-0.835347 l -0.0282,-0.160543 -0.145226,-0.03189 c -0.07988,-0.01754 -0.158134,-0.05278 -0.173913,-0.07831 -0.01578,-0.02553 -0.0715,-0.04642 -0.123816,-0.04642 -0.05232,0 -0.209822,-0.02459 -0.350004,-0.05466 l -0.254876,-0.05466 -0.07855,-0.151899 c -0.04718,-0.09124 -0.06573,-0.202999 -0.04644,-0.279854 0.01766,-0.07037 0.100428,-0.191771 0.183919,-0.269764 0.08349,-0.07799 0.137434,-0.165063 0.119867,-0.193485 -0.01756,-0.02842 -0.07587,-0.05168 -0.129543,-0.05168 -0.05368,0 -0.09762,-0.01698 -0.09765,-0.03771 -2.5e-5,-0.02075 -0.203259,-0.173264 -0.451633,-0.338932 l -0.451585,-0.301219 -0.09656,-0.251925 c -0.0531,-0.138559 -0.147689,-0.418495 -0.210183,-0.622079 l -0.113534,-0.370177 -0.331329,-0.334923 c -0.182231,-0.184206 -0.394522,-0.419294 -0.471758,-0.522417 l -0.140429,-0.187497 h -1.025911 -1.02591 l -0.14109,0.12275 -0.14109,0.12275 0.160797,0.292107 c 0.08844,0.160658 0.238305,0.450508 0.333036,0.644109 0.09473,0.193599 0.221195,0.39585 0.281029,0.449446 0.120255,0.107714 0.293835,0.460041 0.360767,0.732268 l 0.04328,0.176002 -0.11868,0.377142 c -0.06528,0.20743 -0.133393,0.558173 -0.151375,0.77943 -0.01798,0.221257 -0.05241,0.4928 -0.0765,0.603428 -0.204181,0.937446 -0.304341,1.462391 -0.304341,1.595072 0,0.08624 -0.05959,0.402207 -0.132419,0.702158 l -0.132418,0.545366 -0.119011,0.02442 c -0.272791,0.05597 -0.358044,0.05837 -0.612464,0.01724 z"
       id="path1" /></g></svg>
