<?xml version="1.0" encoding="UTF-8" standalone="no"?>
<svg
   width="41.5mm"
   height="41.5mm"
   viewBox="0 0 41.5 41.5"
   version="1.1"
   id="svg8"
   inkscape:version="1.3.2 (091e20ef0f, 2023-11-25, custom)"
   inkscape:export-filename="C:\Users\orang\Pictures\Icons\everlance.png"
   inkscape:export-xdpi="156.68434"
   inkscape:export-ydpi="156.68434"
   sodipodi:docname="Image Toolbox.svg"
   xml:space="preserve"
   xmlns:inkscape="http://www.inkscape.org/namespaces/inkscape"
   xmlns:sodipodi="http://sodipodi.sourceforge.net/DTD/sodipodi-0.dtd"
   xmlns="http://www.w3.org/2000/svg"
   xmlns:svg="http://www.w3.org/2000/svg"
   xmlns:rdf="http://www.w3.org/1999/02/22-rdf-syntax-ns#"
   xmlns:cc="http://creativecommons.org/ns#"
   xmlns:dc="http://purl.org/dc/elements/1.1/"><defs
     id="defs2"><clipPath
       clipPathUnits="userSpaceOnUse"
       id="clipPath879"><rect
         style="fill:#ffffff;stroke-width:4.99999;paint-order:stroke fill markers;stop-color:#000000"
         id="rect881"
         width="41.499996"
         height="41.499996"
         x="12.293"
         y="125.48305" /></clipPath></defs><sodipodi:namedview
     id="base"
     pagecolor="#000000"
     bordercolor="#666666"
     borderopacity="1.0"
     inkscape:pageopacity="0"
     inkscape:pageshadow="2"
     inkscape:zoom="1.5251119"
     inkscape:cx="33.112325"
     inkscape:cy="112.77861"
     inkscape:document-units="mm"
     inkscape:current-layer="layer1"
     inkscape:document-rotation="0"
     showgrid="false"
     fit-margin-top="0"
     fit-margin-left="0"
     fit-margin-right="0"
     fit-margin-bottom="0"
     inkscape:snap-page="true"
     inkscape:window-width="1920"
     inkscape:window-height="1050"
     inkscape:window-x="0"
     inkscape:window-y="330"
     inkscape:window-maximized="1"
     inkscape:showpageshadow="0"
     inkscape:pagecheckerboard="1"
     inkscape:deskcolor="#d1d1d1" /><metadata
     id="metadata5"><rdf:RDF><cc:Work
         rdf:about=""><dc:format>image/svg+xml</dc:format><dc:type
           rdf:resource="http://purl.org/dc/dcmitype/StillImage" /></cc:Work></rdf:RDF></metadata><g
     inkscape:label="Layer 1"
     inkscape:groupmode="layer"
     id="layer1"
     transform="translate(-12.293,-125.48305)"
     style="display:inline;opacity:0.477564"
     sodipodi:insensitive="true" /><g
     inkscape:groupmode="layer"
     id="layer2"
     inkscape:label="Layer 2"><path
       id="rect1"
       style="color:#000000;fill:#ffffff;stroke-linecap:square;-inkscape-stroke:none;paint-order:markers stroke fill;opacity:1"
       d="M 14.790828 10.136849 C 11.4235 10.136849 8.6816406 12.878707 8.6816406 16.246037 L 8.6816406 26.427844 C 8.6816406 29.795174 11.4235 32.537032 14.790828 32.537032 L 24.527185 32.537032 C 27.894515 32.537032 30.63689 29.795174 30.63689 26.427844 L 30.63689 16.246037 C 30.63689 14.999672 30.259283 13.840266 29.615247 12.872599 C 29.587244 12.85345 29.559569 12.831391 29.532564 12.804386 C 29.282992 12.554814 29.127421 12.391492 29.127421 12.391492 C 29.127421 12.391492 29.149642 14.202314 29.149642 14.954643 C 29.149642 15.272197 28.87814 15.441989 28.564665 15.482259 C 28.609984 15.729645 28.636495 15.984192 28.636495 16.246037 L 28.636495 21.928894 C 27.690418 21.146837 26.789746 21.194477 25.776204 22.08599 C 24.702123 23.030758 22.125014 24.995624 21.111373 26.009265 C 20.097732 27.022906 18.802403 26.679956 17.992183 25.869739 C 16.287 24.164561 14.6659 25.627293 14.21877 25.986528 C 13.807491 26.316959 11.48139 27.92584 11.080461 28.20293 C 10.827296 27.666816 10.681519 27.067273 10.681519 26.427844 L 10.681519 16.246037 C 10.681519 13.952109 12.496902 12.136727 14.790828 12.136727 L 24.527185 12.136727 C 25.181832 12.136727 25.794884 12.288609 26.340511 12.553239 C 26.234173 12.324959 26.198115 11.98931 26.395288 11.789978 C 26.556444 11.627056 26.961147 11.22446 27.352852 10.834998 C 26.506799 10.391216 25.546504 10.136849 24.527185 10.136849 L 14.790828 10.136849 z M 27.637073 12.391492 C 27.637073 12.391492 27.562765 12.492749 27.310478 12.742891 C 27.202277 12.850172 27.06296 12.895654 26.924972 12.898954 C 27.182637 13.082528 27.417032 13.294509 27.62467 13.531991 C 27.630647 12.925366 27.637073 12.391492 27.637073 12.391492 z " /><circle
       style="fill:#ffffff;stroke:none;stroke-width:2;stroke-linecap:square;stroke-dasharray:none;paint-order:markers stroke fill"
       id="path2"
       cx="16.469645"
       cy="17.17465"
       r="2.6778054" /><path
       id="rect3"
       style="fill:#ffffff;stroke:none;stroke-width:0.69999987;stroke-linecap:square;stroke-dasharray:none;paint-order:markers stroke fill;stroke-opacity:1;fill-opacity:1"
       d="M 27.04176 8.5622681 C 25.253095 8.5622681 23.813017 10.002346 23.813017 11.791012 L 23.813017 14.239958 C 23.813017 16.028623 25.253095 17.468701 27.04176 17.468701 L 29.490706 17.468701 C 31.279372 17.468701 32.71945 16.028623 32.71945 14.239958 L 32.71945 11.791012 C 32.71945 10.002346 31.279372 8.5622681 29.490706 8.5622681 L 27.04176 8.5622681 z M 28.376562 9.9378947 C 28.491694 9.9412747 28.603107 10.035248 28.777572 10.209713 C 29.1265 10.55864 30.172512 11.625841 30.412614 11.865942 C 30.652715 12.106043 30.525648 12.505834 30.300476 12.731006 C 30.075304 12.956178 29.776453 13.053959 29.52688 12.804386 C 29.277307 12.554814 29.121737 12.391492 29.121737 12.391492 C 29.121737 12.391492 29.143958 14.202314 29.143958 14.954643 C 29.143958 15.332867 28.759208 15.502758 28.376562 15.492078 C 27.993917 15.502759 27.609167 15.332867 27.609167 14.954643 C 27.609167 14.202314 27.631388 12.391492 27.631388 12.391492 C 27.631388 12.391492 27.557081 12.492749 27.304793 12.742891 C 27.052507 12.993033 26.630411 12.908768 26.452649 12.731006 C 26.274887 12.553244 26.129568 12.052861 26.389604 11.789978 C 26.649638 11.527094 27.626625 10.55864 27.975553 10.209713 C 28.150018 10.035248 28.261431 9.9412747 28.376562 9.9378947 z " /></g></svg>
