<?xml version="1.0" encoding="UTF-8" standalone="no"?>
<!-- Created with Inkscape (http://www.inkscape.org/) -->

<svg
   width="256"
   height="256"
   viewBox="0 0 67.733333 67.733334"
   version="1.1"
   id="svg5"
   xml:space="preserve"
   inkscape:version="1.2.2 (732a01da63, 2022-12-09)"
   sodipodi:docname="Monster Hunter Now.svg"
   xmlns:inkscape="http://www.inkscape.org/namespaces/inkscape"
   xmlns:sodipodi="http://sodipodi.sourceforge.net/DTD/sodipodi-0.dtd"
   xmlns="http://www.w3.org/2000/svg"
   xmlns:svg="http://www.w3.org/2000/svg"><sodipodi:namedview
     id="namedview7"
     pagecolor="#505050"
     bordercolor="#ffffff"
     borderopacity="1"
     inkscape:showpageshadow="0"
     inkscape:pageopacity="0"
     inkscape:pagecheckerboard="1"
     inkscape:deskcolor="#505050"
     inkscape:document-units="px"
     showgrid="false"
     inkscape:zoom="1"
     inkscape:cx="138.5"
     inkscape:cy="129.5"
     inkscape:window-width="1920"
     inkscape:window-height="1010"
     inkscape:window-x="-6"
     inkscape:window-y="-6"
     inkscape:window-maximized="1"
     inkscape:current-layer="layer1" /><defs
     id="defs2" /><g
     inkscape:label="Layer 1"
     inkscape:groupmode="layer"
     id="layer1"
     transform="translate(-99.832214,-138.93472)"><g
       id="g1248"
       transform="matrix(4.5991125,0,0,4.5991125,-481.1973,-621.93163)"><path
         id="path1118"
         style="opacity:1;fill:#ffffff;fill-opacity:1;stroke-width:5.72349;stroke-linecap:square;paint-order:markers stroke fill;stop-color:#000000"
         d="m 132.46743,170.62034 -3.04529,2.19418 v 2.6107 h 1.00407 c 0.26969,0 0.40927,0.0941 0.40927,0.0941 0,0 -0.16759,0.0946 -0.40927,0.0946 h -1.00407 v 0.30696 h 1.00407 c 0.22558,0 0.40927,0.10955 0.40927,0.10955 0,0 -0.2127,0.10955 -0.42064,0.10955 h -0.9927 v 0.32453 c 0.01,0.27972 0.38073,0.79478 0.94051,0.79478 2.22415,0 4.44831,0 6.67246,0 0.55978,0 0.93086,-0.51506 0.94051,-0.79478 v -0.32453 h -0.99271 c -0.20794,0 -0.42064,-0.10955 -0.42064,-0.10955 0,0 0.18369,-0.10955 0.40927,-0.10955 h 1.00408 v -0.30696 h -1.00408 c -0.24168,0 -0.40927,-0.0946 -0.40927,-0.0946 0,0 0.13958,-0.0941 0.40927,-0.0941 h 1.00408 v -2.6107 l -3.0453,-2.19418 h -1.23144 z m -1.23145,3.38119 c 0.33984,1.7e-4 0.6153,0.27563 0.61546,0.61547 1.2e-4,0.34004 -0.27542,0.61581 -0.61546,0.61598 -0.34025,1.2e-4 -0.61611,-0.27573 -0.61599,-0.61598 1.6e-4,-0.34005 0.27594,-0.61559 0.61599,-0.61547 z m 4.92579,0 c 0.34005,-1.2e-4 0.61583,0.27542 0.61599,0.61547 1.2e-4,0.34025 -0.27574,0.6161 -0.61599,0.61598 -0.34004,-1.7e-4 -0.61558,-0.27594 -0.61546,-0.61598 1.6e-4,-0.33984 0.27562,-0.6153 0.61546,-0.61547 z m -2.46289,0.10077 2.91661,2.71508 h -5.83323 z"
         sodipodi:nodetypes="cccscsccscsccccccscsccscsccccccccccccccccccc" /><path
         id="path508"
         style="opacity:1;fill:#ffffff;stroke-width:5.72349;stroke-linecap:square;paint-order:markers stroke fill;stop-color:#000000"
         d="m 133.03277,175.16012 0.66611,0.66611 0.6661,-0.66611 h -0.6661 z" /><path
         style="opacity:1;fill:#ffffff;fill-opacity:1;stroke-width:5.72349;stroke-linecap:square;paint-order:markers stroke fill;stop-color:#000000"
         d="m 129.48931,172.45325 v -3.83694 l 0.71248,-0.27283 1.97773,2.21765 -0.52623,0.34168 -1.4515,-1.35757 v 2.38181 z"
         id="path1174"
         sodipodi:nodetypes="cccccccc" /><path
         style="opacity:1;fill:#ffffff;fill-opacity:1;stroke-width:5.72349;stroke-linecap:square;paint-order:markers stroke fill;stop-color:#000000"
         d="m 137.90849,172.45325 v -3.83694 l -0.68049,-0.27283 -2.00972,2.21765 0.52623,0.34168 1.48349,-1.35757 v 2.3978 z"
         id="path1236"
         sodipodi:nodetypes="cccccccc" /></g></g></svg>
