<svg xmlns="http://www.w3.org/2000/svg" id="Layer_1" width="286" height="94" viewBox="-816 494 286 94"><style id="style2">.st3{fill:#f0f0f0}.st4{fill:#ededed}.st5{fill:#ebebeb}</style><g id="g12"><g id="g8"><path id="path4" fill="#141450" d="M-769 586.5c-25.1 0-45.5-20.4-45.5-45.5s20.4-45.5 45.5-45.5 45.5 20.4 45.5 45.5-20.4 45.5-45.5 45.5z"/><path id="path6" fill="#0e0e41" d="M-769 497a44 44 0 1 1 0 88 44 44 0 0 1 0-88m0-3c-26 0-47 21-47 47s21 47 47 47 47-21 47-47-21-47-47-47z"/></g><circle id="circle10" cx="-769" cy="541" r="27.3" fill="#26267a"/></g><g id="g28"><g id="g18"><path id="path14" d="M-577 586.5c-25.1 0-45.5-20.4-45.5-45.5s20.4-45.5 45.5-45.5 45.5 20.4 45.5 45.5-20.4 45.5-45.5 45.5z" class="st3"/><path id="path16" d="M-577 497a44 44 0 1 1 0 88 44 44 0 0 1 0-88m0-3c-26 0-47 21-47 47s21 47 47 47 47-21 47-47-21-47-47-47z" class="st4"/></g><circle id="circle20" cx="-577" cy="541" r="27.3" class="st5"/><g id="g26"><path id="path22" d="M-597.3 527.5h12.6c5.8 0 8.7 2.7 8.7 7.1 0 5.1-3.5 6.4-4.4 6.7v.1c1.6.2 3.9 1.4 3.9 5.6 0 3.1.4 5.9 1.4 7h-5c-.7-1.1-.7-2.6-.7-3.9 0-4.8-1-7-5.3-7h-6.8V554h-4.6v-26.5h.2zm4.6 12.1h7.6c3 0 4.5-1.4 4.5-4.2 0-3.4-2.2-4-4.6-4h-7.5v8.2z"/><path id="path24" d="M-565.7 538.8c2.8.1 5.7-.9 5.7-4.1 0-2.2-1.7-3.7-4-3.7-2.9 0-4.4 2.6-4.3 5.3h-4.2c.2-5 3.4-8.8 8.6-8.8 4 0 8.2 2.3 8.2 6.9 0 2.6-1.1 4.7-3.7 5.5v.1c3 .6 4.7 3.1 4.7 6.5 0 4.9-4.3 7.9-9.2 7.9-6 0-9-3.6-9.1-9h4.2c-.1 3.1 1.6 5.5 4.9 5.5 2.8 0 5-1.7 5-4.6 0-4-3.4-4.5-6.8-4.4v-3.1z"/></g></g><g id="g44"><g id="g34"><path id="path30" d="M-673 586.5c-25.1 0-45.5-20.4-45.5-45.5s20.4-45.5 45.5-45.5 45.5 20.4 45.5 45.5-20.4 45.5-45.5 45.5z" class="st3"/><path id="path32" d="M-673 497a44 44 0 1 1 0 88 44 44 0 0 1 0-88m0-3c-26 0-47 21-47 47s21 47 47 47 47-21 47-47-21-47-47-47z" class="st4"/></g><circle id="circle36" cx="-673" cy="541" r="27.3" class="st5"/><g id="g42"><path id="path38" d="M-690.9 527.5h4.6v22.4h13.4v4h-18v-26.4z"/><path id="path40" d="M-664.1 538.8c2.8.1 5.7-.9 5.7-4.1 0-2.2-1.7-3.7-4-3.7-2.9 0-4.4 2.6-4.3 5.3h-4.2c.2-5 3.4-8.8 8.6-8.8 4 0 8.2 2.3 8.2 6.9 0 2.6-1.1 4.7-3.7 5.5v.1c3 .6 4.7 3.1 4.7 6.5 0 4.9-4.3 7.9-9.2 7.9-6 0-9-3.6-9.1-9h4.2c-.1 3.1 1.6 5.5 4.9 5.5 2.8 0 5-1.7 5-4.6 0-4-3.4-4.5-6.8-4.4v-3.1z"/></g></g></svg>
