<?xml version="1.0" encoding="UTF-8"?>
<svg width="806" height="598.9" version="1.1" viewBox="97 97.1 806 598.9" xml:space="preserve" xmlns="http://www.w3.org/2000/svg" xmlns:xlink="http://www.w3.org/1999/xlink"><defs><pattern id="pattern135" patternTransform="matrix(.33 .09 -.09 .33 22062 7272.1)" xlink:href="#pattern100"/><pattern id="pattern100" patternTransform="matrix(-.33 .09 .09 .33 -21062 7272.1)" xlink:href="#SVGID_5_"/><pattern id="pattern96" patternTransform="translate(282.1 94)" preserveAspectRatio="xMidYMid" xlink:href="#pattern95"/><pattern id="pattern95" width="7.1" height="7.1" fill="#000000" patternTransform="translate(282.1 94)" patternUnits="userSpaceOnUse" preserveAspectRatio="xMidYMid"><g transform="scale(.1)"><polygon class="cls-1" points="0 71 0 0 71 0 71 71" fill="none"/><polygon class="cls-1" points="0 71 0 0 71 0 71 71" fill="none"/><path class="cls-2" d="m41.8 35.5a6.3 6.3 0 1 1-6.3-6.3 6.27 6.27 0 0 1 6.3 6.3z" fill="#727272"/></g></pattern><style>
      .cls-1 {
        fill: none;
      }

      .cls-2 {
        fill: #b3b3b3;
      }

      .cls-3 {
        fill: #0d0e13;
      }

      .cls-4 {
        opacity: 0.06;
      }

      .cls-5 {
        fill: #fff;
      }

      .cls-6 {
        fill: #13161f;
      }

      .cls-7 {
        fill: #0f1015;
      }

      .cls-8 {
        fill: #121212;
      }

      .cls-9 {
        fill: #080808;
      }

      .cls-10 {
        fill: #1f1f1f;
      }

      .cls-11 {
        fill: #e6e6e6;
        opacity: 0.1;
      }

      .cls-11, .cls-12, .cls-13, .cls-14, .cls-17 {
        isolation: isolate;
      }

      .cls-12, .cls-14, .cls-29 {
        opacity: 0.08;
      }

      .cls-12 {
        fill: url(#SVGID_4_);
      }

      .cls-13 {
        opacity: 0.22;
      }

      .cls-14 {
        fill: url(#SVGID_5_);
      }

      .cls-15 {
        fill: #10111a;
      }

      .cls-16 {
        fill: #1a1a1a;
      }

      .cls-17 {
        opacity: 0.25;
      }

      .cls-18 {
        opacity: 0.12;
      }

      .cls-19 {
        fill: #0b0b0f;
      }

      .cls-20 {
        fill: url(#SVGID_6_);
      }

      .cls-21 {
        fill: #0f0f0f;
      }

      .cls-22 {
        fill: #f66;
      }

      .cls-23 {
        fill: #7cb2e8;
      }

      .cls-24 {
        fill: #ff69f8;
      }

      .cls-25 {
        fill: #40e2a0;
      }

      .cls-26 {
        fill: #050505;
        stroke: #000;
        stroke-miterlimit: 10;
        stroke-width: 2px;
      }

      .cls-27 {
        fill: #f2f2f2;
      }

      .cls-28 {
        fill: #0a0a0a;
      }

      .cls-30 {
        fill: #ccc;
      }
    </style><pattern id="SVGID_5_" width="40" height="103" data-name="SVGID 5 " patternTransform="matrix(-.33 .09 .09 .33 -21062 7272.1)" patternUnits="userSpaceOnUse" viewBox="0 0 40 103"><rect class="cls-1" width="40" height="103"/><polygon class="cls-1" points="0 0 40 0 40 103 0 103"/><polygon class="cls-1" points="0 0 40 0 40 103 0 103"/><polygon points="34.5 231.8 37.5 231.8 37.5 77.3 34.5 77.3"/><polygon points="26.5 231.8 29.5 231.8 29.5 77.3 26.5 77.3"/><polygon points="18.5 231.8 21.5 231.8 21.5 77.3 18.5 77.3"/><polygon points="10.5 231.8 13.5 231.8 13.5 77.3 10.5 77.3"/><polygon points="2.5 231.8 5.5 231.8 5.5 77.3 2.5 77.3"/><polygon points="34.5 128.8 37.5 128.8 37.5 -25.7 34.5 -25.7"/><polygon points="26.5 128.8 29.5 128.8 29.5 -25.7 26.5 -25.7"/><polygon points="18.5 128.8 21.5 128.8 21.5 -25.7 18.5 -25.7"/><polygon points="10.5 128.8 13.5 128.8 13.5 -25.7 10.5 -25.7"/><polygon points="2.5 128.8 5.5 128.8 5.5 -25.7 2.5 -25.7"/><polygon points="34.5 25.8 37.5 25.8 37.5 -128.7 34.5 -128.7"/><polygon points="26.5 25.8 29.5 25.8 29.5 -128.7 26.5 -128.7"/><polygon points="18.5 25.8 21.5 25.8 21.5 -128.7 18.5 -128.7"/><polygon points="10.5 25.8 13.5 25.8 13.5 -128.7 10.5 -128.7"/><polygon points="2.5 25.8 5.5 25.8 5.5 -128.7 2.5 -128.7"/></pattern></defs><path d="M898.3 515.7c-2.9-15.5-17.7-102.5-32-144.6-9.4-27.7-13.1-53-17-64.9-12-35.7-33-65.7-33-65.7s-9.5-13.1-10.1-16.3c-.6-3.3-4.7-8.6-4.7-8.6s-17.4-5.7-62.3-5.7-53.7 5-53.7 5-2.4 2.9-5.9 4.8c-3.5 1.8-11.7 1.7-11.7 1.7h-33.4s-.6-.1-.9.3c-.4.4-.6 2-.6 2H366.9s-.3-1.7-.6-2c-.4-.4-.9-.3-.9-.3H332s-8.2.2-11.7-1.7c-3.5-1.8-5.9-4.8-5.9-4.8s-8.8-5-53.7-5c-44.8 0-62.3 5.7-62.3 5.7s-4.1 5.3-4.7 8.6c-.6 3.3-10.1 16.3-10.1 16.3s-21 30-33 65.7c-4 11.9-7.7 37.2-17 64.9-14.3 42.1-29.1 129.1-32 144.6-4.3 23.2-4.6 90.2-4.6 90.2s4.5 53.4 36.2 74.9 56.7 14 56.7 14 33.1-8.2 57.8-41.9 56.6-129.2 56.6-129.2 2.2-3 5.7-5.3 6.3-2.6 6.3-2.6l183.7.1 183.7-.1s2.8.3 6.3 2.6 5.7 5.3 5.7 5.3 31.9 95.4 56.6 129.2 57.8 41.9 57.8 41.9 25 7.5 56.7-14 36.2-74.9 36.2-74.9-.3-67-4.7-90.2z" fill="#101010"/><path d="M133.6 373.1c9.4-27.7 13.1-53 17-64.9 12-35.7 33-65.7 33-65.7s9.5-13.1 10.1-16.3c.6-3.3 4.7-8.6 4.7-8.6s17.4-5.7 62.3-5.7c44.8 0 53.7 5 53.7 5s2.4 2.9 5.9 4.8c3.5 1.8 11.7 1.7 11.7 1.7h33.4s.6-.1.9.3c.4.4.6 2 .6 2h266.2s.3-1.7.6-2c.4-.4.9-.3.9-.3H668s8.2.2 11.7-1.7c3.5-1.8 5.9-4.8 5.9-4.8s8.8-5 53.7-5 62.3 5.7 62.3 5.7 4.1 5.3 4.7 8.6c.6 3.3 10.1 16.3 10.1 16.3s21 30 33 65.7c4 11.9 7.7 37.2 17 64.9 14.3 42.1 29.1 129.1 32 144.6 3.9 20.9 4.6 77.3 4.7 88.3v-.1s-.3-66.9-4.7-90.1c-2.9-15.5-17.7-102.5-32-144.6-9.4-27.7-13.1-53-17-64.9-12-35.7-33-65.7-33-65.7s-9.5-13.1-10.1-16.3c-.6-3.3-4.7-8.6-4.7-8.6s-17.4-5.7-62.3-5.7-53.7 5-53.7 5-2.4 2.9-5.9 4.8c-3.5 1.8-11.7 1.7-11.7 1.7h-33.4s-.6-.1-.9.3c-.4.4-.6 2-.6 2H366.9s-.3-1.7-.6-2c-.4-.4-.9-.3-.9-.3H332s-8.2.2-11.7-1.7c-3.5-1.8-5.9-4.8-5.9-4.8s-8.8-5-53.7-5c-44.8 0-62.3 5.7-62.3 5.7s-4.1 5.3-4.7 8.6c-.6 3.3-10.1 16.3-10.1 16.3s-21 30-33 65.7c-4 11.9-7.7 37.2-17 64.9-14.3 42.1-29.1 129.1-32 144.6-4.3 23.1-4.6 90.1-4.6 90.1v.1c.1-10.9.7-67.4 4.7-88.3 2.9-15.4 17.6-102.5 31.9-144.6z" fill="#fff" opacity=".06"/><g><path d="M448.2 457.1c0-42.2-34.3-76.5-76.5-76.5s-76.5 34.3-76.5 76.5c0 .7 0 1.3.1 2 0 .7-.1 1.3-.1 2 0 42.2 34.3 76.5 76.5 76.5s76.5-34.3 76.5-76.5c0-.7 0-1.3-.1-2 0-.7.1-1.4.1-2z" fill="#191919"/><circle cx="371.7" cy="453.1" r="73" fill="#121212"/><circle cx="371.7" cy="453.1" r="51.5"/><path d="M704.8 457.1c0-42.2-34.3-76.5-76.5-76.5s-76.5 34.3-76.5 76.5c0 .7 0 1.3.1 2 0 .7-.1 1.3-.1 2 0 42.2 34.3 76.5 76.5 76.5s76.5-34.3 76.5-76.5c0-.7 0-1.3-.1-2 .1-.7.1-1.4.1-2z" fill="#191919"/><circle cx="628.3" cy="453.1" r="73" fill="#121212"/><circle cx="628.3" cy="453.1" r="51.5"/><path d="M631.8 225.1c-.4-3.2-3.3-5.6-6.5-5.6H374.7c-3.2 0-6.1 2.3-6.5 5.6-.1.7-.1 1.4-.1 2.1v127.4c0 8.9 7.2 16.1 16.1 16.1h231.6c8.9 0 16.1-7.2 16.1-16.1V227.2c.1-.7 0-1.4-.1-2.1z" fill="#969696"/><circle cx="749.3" cy="341.9" r="94.3" fill="#080808"/><circle cx="250.7" cy="341.9" r="94.3" fill="#080808"/><path d="M327.4 351.2l9.5-8.9c.5-.5.5-1.2 0-1.7l-9.5-8.9c-.7-.7-1.9-.2-1.9.8v17.8c-.1 1 1.1 1.5 1.9.9zM242 266.9h17.8c1 0 1.5-1.2.8-1.9l-8.9-9.5c-.5-.5-1.2-.5-1.7 0l-8.9 9.5c-.6.7-.1 1.9.9 1.9zM174.5 331.7l-9.5 8.9c-.5.5-.5 1.2 0 1.7l9.5 8.9c.7.7 1.9.2 1.9-.8v-17.8c0-1.1-1.2-1.6-1.9-.9zM259.8 415.9H242c-1 0-1.5 1.2-.8 1.9l8.9 9.5c.5.5 1.2.5 1.7 0l8.9-9.5c.6-.7.1-1.9-.9-1.9z" fill="#a5a5a5"/></g><g fill="#fff"><path d="m797.8 641.6c40.5-2.8 75.8-20.3 87.3-30.5s17.5-31.5 17.5-31.5c0.4 15 0.4 26.3 0.4 26.3s-4.5 53.4-36.2 74.9-56.7 14-56.7 14-33.1-8.2-57.8-41.9c-4.5-6.2-9.3-14.5-14.1-23.8 0.1-0.1 19.2 15.2 59.6 12.5z" fill="#d3d3d3" opacity=".75"/><path d="M797.8 641.6c40.5-2.8 75.8-20.3 87.3-30.5s17.5-31.5 17.5-31.5c.4 15 .4 26.3.4 26.3s-4.5 53.4-36.2 74.9-56.7 14-56.7 14-33.1-8.2-57.8-41.9c-4.5-6.2-9.3-14.5-14.1-23.8.1-.1 19.2 15.2 59.6 12.5z" fill="url(#pattern100)" opacity=".08"/><path d="m813 689.6c12.5 1.8 31.3-2 45.1-7.7 13.6-5.7 24-16.4 24-16.4-4.2 5.8-9.3 11.1-15.3 15.2-31.7 21.5-56.7 14-56.7 14s-11.7-2.9-26.3-12.3c0 0 14.6 5.2 29.2 7.2z" fill="#000" opacity=".22"/><g><path d="m337.5 240.6c6.9 0 12.5 5.6 12.5 12.5v18.3c0 6.9-5.6 12.5-12.5 12.5s-12.5-5.6-12.5-12.5v-18.3c0-6.9 5.6-12.5 12.5-12.5m0-1.7c-7.8 0-14.2 6.4-14.2 14.2v18.3c0 7.8 6.4 14.2 14.2 14.2s14.2-6.4 14.2-14.2v-18.3c0-7.9-6.4-14.2-14.2-14.2z" fill="#969696"/><path d="m337.5 240.6c-6.9 0-12.5 5.6-12.5 12.5v18.3c0 6.9 5.6 12.5 12.5 12.5s12.5-5.6 12.5-12.5v-18.3c0-6.9-5.6-12.5-12.5-12.5z" fill="#b4b4b4"/></g><g><path d="m662.5 240.6c6.9 0 12.5 5.6 12.5 12.5v18.3c0 6.9-5.6 12.5-12.5 12.5s-12.5-5.6-12.5-12.5v-18.3c0-6.9 5.6-12.5 12.5-12.5m0-1.7c-7.8 0-14.2 6.4-14.2 14.2v18.3c0 7.8 6.4 14.2 14.2 14.2s14.2-6.4 14.2-14.2v-18.3c0-7.9-6.4-14.2-14.2-14.2z" fill="#969696"/><path d="m662.5 240.6c-6.9 0-12.5 5.6-12.5 12.5v18.3c0 6.9 5.6 12.5 12.5 12.5s12.5-5.6 12.5-12.5v-18.3c0-6.9-5.6-12.5-12.5-12.5z" fill="#b4b4b4"/></g><path d="m202.23 641.6c-40.5-2.8-75.8-20.3-87.3-30.5s-17.5-31.5-17.5-31.5c-0.4 15-0.4 26.3-0.4 26.3s4.5 53.4 36.2 74.9 56.7 14 56.7 14 33.1-8.2 57.8-41.9c4.5-6.2 9.3-14.5 14.1-23.8-0.1-0.1-19.2 15.2-59.6 12.5z" fill="#d3d3d3" opacity=".75"/><path d="m202.23 641.6c-40.5-2.8-75.8-20.3-87.3-30.5s-17.5-31.5-17.5-31.5c-0.4 15-0.4 26.3-0.4 26.3s4.5 53.4 36.2 74.9 56.7 14 56.7 14 33.1-8.2 57.8-41.9c4.5-6.2 9.3-14.5 14.1-23.8-0.1-0.1-19.2 15.2-59.6 12.5z" fill="url(#pattern135)" opacity=".08"/><path d="m187.03 689.6c-12.5 1.8-31.3-2-45.1-7.7-13.6-5.7-24-16.4-24-16.4 4.2 5.8 9.3 11.1 15.3 15.2 31.7 21.5 56.7 14 56.7 14s11.7-2.9 26.3-12.3c0 0-14.6 5.2-29.2 7.2z" fill="#000" opacity=".22"/></g><g><circle cx="500" cy="413.5" r="4.1"/><circle cx="500" cy="392.6" r="4.1"/><circle cx="493.1" cy="402.8" r="4.1"/><circle cx="478.4" cy="402.8" r="4.1"/><circle cx="485.7" cy="413.5" r="4.1"/><circle cx="485.7" cy="392.6" r="4.1"/><circle cx="471.4" cy="392.6" r="4.1"/><circle cx="506.9" cy="402.8" r="4.1"/><circle cx="521.6" cy="402.8" r="4.1"/><circle cx="514.2" cy="413.5" r="4.1"/><circle cx="514.2" cy="392.6" r="4.1"/><circle cx="528.6" cy="392.6" r="4.1"/></g><g fill="#fff" opacity=".12" stroke="#f00"><path d="M500 416.6c-2.1 0-3.8-1.6-4.1-3.6 0 .2-.1.3-.1.5 0 2.3 1.8 4.1 4.1 4.1s4.1-1.8 4.1-4.1c0-.2 0-.3-.1-.5-.1 2-1.8 3.6-3.9 3.6zM500 396.7c2.3 0 4.1-1.8 4.1-4.1 0-.2 0-.3-.1-.5-.2 2-2 3.6-4.1 3.6s-3.8-1.6-4.1-3.6c0 .2-.1.3-.1.5.2 2.2 2 4.1 4.3 4.1zM497.2 402.8c0-.2 0-.3-.1-.5-.2 2-2 3.6-4.1 3.6s-3.8-1.6-4.1-3.6c0 .2-.1.3-.1.5 0 2.3 1.8 4.1 4.1 4.1 2.4 0 4.3-1.8 4.3-4.1zM482.4 402.3c-.2 2-2 3.6-4.1 3.6s-3.8-1.6-4.1-3.6c0 .2-.1.3-.1.5 0 2.3 1.8 4.1 4.1 4.1s4.1-1.8 4.1-4.1c.2-.2.2-.3.1-.5zM485.8 416.6c-2.1 0-3.8-1.6-4.1-3.6 0 .2-.1.3-.1.5 0 2.3 1.8 4.1 4.1 4.1s4.1-1.8 4.1-4.1c0-.2 0-.3-.1-.5-.1 2-1.8 3.6-3.9 3.6zM485.8 396.7c2.3 0 4.1-1.8 4.1-4.1 0-.2 0-.3-.1-.5-.2 2-2 3.6-4.1 3.6s-3.8-1.6-4.1-3.6c0 .2-.1.3-.1.5.1 2.2 2 4.1 4.3 4.1zM475.6 392.6c0-.2 0-.3-.1-.5-.2 2-2 3.6-4.1 3.6s-3.8-1.6-4.1-3.6c0 .2-.1.3-.1.5 0 2.3 1.8 4.1 4.1 4.1 2.4 0 4.3-1.9 4.3-4.1zM511 402.3c-.2 2-2 3.6-4.1 3.6s-3.8-1.6-4.1-3.6c0 .2-.1.3-.1.5 0 2.3 1.8 4.1 4.1 4.1s4.1-1.8 4.1-4.1c.2-.2.1-.3.1-.5zM521.6 405.9c-2.1 0-3.8-1.6-4.1-3.6 0 .2-.1.3-.1.5 0 2.3 1.8 4.1 4.1 4.1s4.1-1.8 4.1-4.1c0-.2 0-.3-.1-.5 0 2.1-1.8 3.6-3.9 3.6zM514.3 416.6c-2.1 0-3.8-1.6-4.1-3.6 0 .2-.1.3-.1.5 0 2.3 1.8 4.1 4.1 4.1s4.1-1.8 4.1-4.1c0-.2 0-.3-.1-.5-.1 2-1.8 3.6-3.9 3.6zM514.3 396.7c2.3 0 4.1-1.8 4.1-4.1 0-.2 0-.3-.1-.5-.2 2-2 3.6-4.1 3.6-2.1 0-3.8-1.6-4.1-3.6 0 .2-.1.3-.1.5.1 2.2 2 4.1 4.3 4.1zM528.6 395.7c-2.1 0-3.8-1.6-4.1-3.6 0 .2-.1.3-.1.5 0 2.3 1.8 4.1 4.1 4.1s4.1-1.8 4.1-4.1c0-.2 0-.3-.1-.5-.1 2-1.8 3.6-3.9 3.6z" fill="#fff" stroke="none"/></g><path d="m533.6 518.1h-67.9c-2.8 0-4.6 0.6-4.6-2.2s2.3-5 5-5h67.9c2.8 0 5 2.3 5 5 0.1 2.7-2.6 2.2-5.4 2.2z" fill="#b4b4b4"/><path d="M505.3 515.9h-36.5c-.5 0-.9-.4-.9-.9 0-1.1.9-2 2-2h34.2c1.1 0 2 .9 2 2 .1.5-.3.9-.8.9zM527.5 516.7h-4.2c-.9 0-1.7-.8-1.7-1.7 0-1.6 1.3-2.8 2.8-2.8h1.9c1.6 0 2.8 1.3 2.8 2.8.1 1-.6 1.7-1.6 1.7z"/><g fill="#fff"><path d="M627.4 221.4c0-1-.8-1.9-1.9-1.9H374.4c-1 0-1.9.8-1.9 1.9v129.2c0 8.6 7 15.6 15.6 15.6h223.8c8.6 0 15.6-7 15.6-15.6V227.5l-.1-6.1z" fill="#c3c3c3"/><g fill="url(#pattern96)" opacity=".12" stroke="#f00"><path d="M372.5 350.6c0 8.6 7 15.6 15.6 15.6h223.8c8.6 0 15.6-7 15.6-15.6V244.1h-255v106.5z" fill="url(#pattern96)" stroke="none"/></g><g stroke="#f00"><g stroke="none"><path d="m806.9 368.1c-14.5 0-26.3-11.8-26.3-26.3s11.8-26.3 26.3-26.3 26.3 11.8 26.3 26.3-11.8 26.3-26.3 26.3z" fill="#d3d3d3"/><path d="m806.9 316.6c13.9 0 25.3 11.3 25.3 25.3s-11.3 25.2-25.3 25.2-25.3-11.3-25.3-25.3 11.4-25.2 25.3-25.2m0-2c-15 0-27.3 12.2-27.3 27.3s12.2 27.3 27.3 27.3 27.3-12.2 27.3-27.3-12.3-27.3-27.3-27.3z" fill="#121212"/><path d="m806.9 323c-10.4 0-18.9 8.5-18.9 18.9s8.5 18.9 18.9 18.9 18.9-8.5 18.9-18.9-8.4-18.9-18.9-18.9zm0 34.9c-8.9 0-16-7.2-16-16 0-8.9 7.2-16 16-16s16 7.2 16 16c0.1 8.9-7.1 16-16 16z" fill="#f05959"/></g><path d="m749.3 425.7c-14.5 0-26.3-11.8-26.3-26.3s11.8-26.3 26.3-26.3 26.3 11.8 26.3 26.3-11.8 26.3-26.3 26.3z" fill="#d3d3d3" stroke="#f00"/><path d="m749.3 374.2c13.9 0 25.3 11.3 25.3 25.3s-11.3 25.3-25.3 25.3-25.3-11.3-25.3-25.3 11.4-25.3 25.3-25.3m0-2c-15 0-27.3 12.2-27.3 27.3 0 15 12.2 27.3 27.3 27.3s27.3-12.2 27.3-27.3c0-15-12.2-27.3-27.3-27.3z" fill="#121212" stroke="none"/><path d="m763.7 387.1-2-2-12.4 12.4-12.3-12.4-2 2 12.3 12.4-12.3 12.3 2 2 12.3-12.3 12.4 12.3 2-2-12.4-12.3z" fill="#265c92" stroke="none"/><g stroke="none"><path d="m691.8 368.1c-14.5 0-26.3-11.8-26.3-26.3s11.8-26.3 26.3-26.3 26.3 11.8 26.3 26.3-11.9 26.3-26.3 26.3z" fill="#d3d3d3"/><path d="m691.7 316.6c13.9 0 25.3 11.3 25.3 25.3s-11.3 25.2-25.3 25.2-25.3-11.3-25.3-25.3 11.4-25.2 25.3-25.2m0-2c-15 0-27.3 12.2-27.3 27.3s12.2 27.3 27.3 27.3 27.3-12.2 27.3-27.3-12.2-27.3-27.3-27.3z" fill="#121212"/><path d="m703.3 327.5h-25.8v28.6h28.6v-28.6h-2.8zm0 25.9h-23v-23h23v23z" fill="#d842d1"/></g><g stroke="none"><path d="m749.3 310.6c-14.5 0-26.3-11.8-26.3-26.3s11.8-26.3 26.3-26.3 26.3 11.8 26.3 26.3-11.8 26.3-26.3 26.3z" fill="#d3d3d3"/><path d="m749.3 259.1c13.9 0 25.3 11.3 25.3 25.3s-11.3 25.3-25.3 25.3-25.3-11.3-25.3-25.3 11.4-25.3 25.3-25.3m0-2c-15 0-27.3 12.2-27.3 27.3s12.2 27.3 27.3 27.3 27.3-12.2 27.3-27.3-12.2-27.3-27.3-27.3z" fill="#000"/><path d="m765.3 292.3-16-27.6-16 27.6-1.6 2.8h35.2l-1.6-2.8zm-16 0h-12.7l12.7-21.9 12.7 21.9h-12.7z" fill="#006b29"/></g></g><g><circle cx="500" cy="459.1" r="20.2" fill="#b4b4b4" stroke="#808080" stroke-miterlimit="10" stroke-width="2"/><g fill="#000"><path d="M501.1 465.7v-12.8c0-.5.1-.8.3-1 .1-.2.4-.3.7-.2.6.2.9.7.9 1.7v6.9c.8.4 1.5.5 2.1.5s1.2-.2 1.6-.5c1-.7 1.5-1.9 1.5-3.7 0-1.9-.4-3.4-1.2-4.3-.8-1-2.1-1.9-4.1-2.6-1.3-.4-2.5-.8-3.6-1.1-1.1-.3-2-.5-2.9-.7V468.5l4.7 1.5v-4.3zM496 464.7l-1.7.6-.9.4-1.6.3-1.5-.2c-.3-.2-.4-.4-.2-.6.1-.1.2-.1.3-.2.1-.1.3-.1.4-.2l1.1-.4 4.1-1.5v-2.7l-1.7.5-5.5 2-1 .4c-1.5.6-2.2 1.2-2.2 1.8.1.8 1 1.5 2.7 1.9.7.2 1.4.3 2.1.4s1.4.1 2.2.1c1 0 2.1-.1 3.3-.3v-2.3h.1z"/><path d="M511.8 462.4c-.9-.3-1.7-.5-2.5-.6s-1.7-.2-2.5-.1c-.9 0-1.9.2-2.8.3-.8.2-1.7.4-2.6.8v2.8l3.9-1.4 1.6-.5 1.1-.3h1.4c.3.1.6.2.7.4 0 .2-.2.4-.8.6l-1.4.5-6.5 2.4v2.7l3.5-1.3 6.4-2.3.7-.4c1.5-.5 2.2-1.2 2.2-1.9 0-.6-.8-1.2-2.4-1.7z"/></g></g><g><path d="M794.2 207c0-.8-.4-1.5-1.1-1.9-4.5-2.9-23.4-13.6-51.5-13.6-26.9 0-41.1 5.9-45.1 8-.8.4-1.2 1.2-1.2 2 0 0 9.8-2.9 47.5-2.9s51.4 8.4 51.4 8.4z" fill="#b6b6b6"/><path d="M794.1 213.9V207s-13.7-8.4-51.4-8.4c-37.8 0-47.5 2.9-47.5 2.9v11c7.7-1.3 21.2-2.6 44.1-2.6 28.5.1 45.9 2.4 54.8 4z" fill="#bebebe"/><path d="M205.8 207c0-.8.4-1.5 1.1-1.9 4.5-2.9 23.4-13.6 51.5-13.6 26.9 0 41.1 5.9 45.1 8 .8.4 1.2 1.2 1.2 2 0 0-9.8-2.9-47.5-2.9s-51.4 8.4-51.4 8.4z" fill="#b6b6b6"/><path d="M205.9 213.9V207s13.7-8.4 51.4-8.4c37.8 0 47.5 2.9 47.5 2.9v11c-7.7-1.3-21.2-2.6-44.1-2.6-28.5.1-45.9 2.4-54.8 4z" fill="#bebebe"/></g><g stroke="#f00"><path d="m794.2 187.9s-32.7-3.2-50.6-3.2-48.4 2.4-48.4 2.4 3.1-44.7 4.8-52c1.6-7.3 7.7-21.3 16.9-27.9s11.9-10.1 22.7-10.1 25.4 6.4 34.6 21.4c9.3 15 20 69.4 20 69.4z" fill="#bebebe" stroke="none"/><path d="M695.7 180.3s26.1-4.4 49-4.4c22.8 0 47.9 4.4 47.9 4.4 1 4.7 1.6 7.6 1.6 7.6s-32.7-3.2-50.6-3.2-48.4 2.4-48.4 2.4.2-2.7.5-6.8z" fill="#b6b6b6" stroke="none"/><g fill="#fff" opacity=".08" stroke="#f00"><path d="M745.7 162.8c-2.1 1.7-3.2 2.6-3.2 2.6-1.2 1.2-1.9 2.7-2 4.5h9.8v-2.6H744c.3-.5 1-1.2 2.1-1.9 1.4-.9 2.3-1.6 2.7-2.1.9-1 1.3-2.1 1.3-3.3 0-1.4-.5-2.5-1.4-3.3-.9-.8-2.1-1.2-3.5-1.2-3.1 0-4.7 1.7-4.7 5h2.7c0-1.8.7-2.7 2.1-2.7 1.3 0 2 .7 2 2.1.2 1.1-.4 2-1.6 2.9zM728.1 164.3h3c1.5 0 2.3.6 2.4 1.9.1 1.2.2 2.5.3 3.8h3.3v-.4c-.5-.2-.7-.7-.7-1.5 0-.2 0-.4.1-.8v-.7c0-1.7-.6-2.9-1.8-3.5 1.4-.5 2.2-1.6 2.2-3.4 0-1.3-.4-2.3-1.3-3-.8-.7-1.9-1-3.2-1h-7.3V170h3v-5.7zm0-6.2h3.7c1.4 0 2.1.6 2.1 1.9 0 1.3-.8 1.9-2.3 1.9h-3.5v-3.8z" fill="#000" stroke="none"/></g><path d="m205.8 187.9s32.7-3.2 50.6-3.2 48.3 2.4 48.3 2.4-3.1-44.7-4.8-52c-1.6-7.3-7.7-21.3-16.9-27.9-9.1-6.7-11.8-10.1-22.6-10.1s-25.4 6.4-34.6 21.4-20 69.4-20 69.4z" fill="#bebebe" stroke="none"/><path d="M304.3 180.3s-26.1-4.4-49-4.4c-22.8 0-47.9 4.4-47.9 4.4-1 4.7-1.6 7.6-1.6 7.6s32.7-3.2 50.6-3.2 48.3 2.4 48.3 2.4-.1-2.7-.4-6.8z" fill="#b6b6b6" stroke="none"/><g fill="#fff" opacity=".08" stroke="#f00"><path d="M270.3 162.8c-2.1 1.7-3.2 2.6-3.2 2.6-1.2 1.2-1.9 2.7-2 4.5h9.8v-2.6h-6.2c.3-.5 1-1.2 2.1-1.9 1.4-.9 2.3-1.6 2.7-2.1.9-1 1.3-2.1 1.3-3.3 0-1.4-.5-2.5-1.4-3.3-.9-.8-2.1-1.2-3.5-1.2-3.1 0-4.7 1.7-4.7 5h2.7c0-1.8.7-2.7 2.1-2.7 1.3 0 2 .7 2 2.1.1 1.1-.5 2-1.7 2.9zM261.8 167.3h-7v-11.7h-3.1v14.3h10.1z" fill="#000" stroke="none"/></g></g><path d="M644.6 231.7c0 2.1-1.5 3.8-4.1 3.8s-4.1-1.7-4.1-3.8c0-2 1.5-3.8 4.1-3.8s4.1 1.7 4.1 3.8zm-6.7 0c0 1.4.8 2.7 2.6 2.7s2.6-1.4 2.6-2.7c0-1.4-.8-2.7-2.6-2.7s-2.6 1.3-2.6 2.7zM645.9 228.1h3.8c2.4 0 2.9 1.3 2.9 2.2s-.5 2.2-2.9 2.2h-2.3v2.8h-1.5v-7.2zm1.5 3.4h2.2c.7 0 1.5-.3 1.5-1.2s-.7-1.2-1.5-1.2h-2.2v2.4zM653.1 228.1h6.9v1.1h-2.7v6.1h-1.5v-6.2h-2.7v-1zM661.1 228.1h1.5v7.2h-1.5v-7.2zM672.1 231.7c0 2.1-1.5 3.8-4.1 3.8s-4.1-1.7-4.1-3.8c0-2 1.5-3.8 4.1-3.8s4.1 1.7 4.1 3.8zm-6.7 0c0 1.4.8 2.7 2.6 2.7s2.6-1.4 2.6-2.7c0-1.4-.8-2.7-2.6-2.7s-2.6 1.3-2.6 2.7zM673.5 228.1h1.6l3.9 5.3v-5.3h1.4v7.2h-1.6l-3.9-5.3v5.3h-1.4v-7.2zM683.2 232.9c0 1.1 1 1.5 2.2 1.5 1.3 0 1.8-.6 1.8-1.1 0-.6-.4-.8-.7-.9-.6-.2-1.4-.3-2.6-.6-1.5-.3-1.9-1.1-1.9-1.8 0-1.5 1.6-2.1 3.1-2.1 1.8 0 3.3.8 3.3 2.3h-1.5c-.1-.9-.8-1.3-1.8-1.3-.7 0-1.6.2-1.6.9 0 .5.4.8 1 .9.1 0 2 .4 2.5.6 1.1.3 1.7 1.1 1.7 1.8 0 1.6-1.7 2.3-3.4 2.3-2 0-3.5-.8-3.6-2.6h1.5v.1z" fill="#cbcbcb"/><g fill="#fff" stroke="#f00"><path d="M319.2 232.9c0 1.1 1 1.5 2.2 1.5 1.3 0 1.8-.6 1.8-1.1 0-.6-.4-.8-.7-.9-.6-.2-1.4-.3-2.6-.6-1.5-.3-1.9-1.1-1.9-1.8 0-1.5 1.6-2.1 3.1-2.1 1.8 0 3.3.8 3.3 2.3h-1.5c-.1-.9-.8-1.3-1.8-1.3-.7 0-1.6.2-1.6.9 0 .5.4.8 1 .9.1 0 2 .4 2.5.6 1.1.3 1.7 1.1 1.7 1.8 0 1.6-1.7 2.3-3.4 2.3-2 0-3.5-.8-3.6-2.6h1.5v.1zM325.9 228.1h1.5v2.9h3.9v-2.9h1.5v7.2h-1.5v-3.2h-3.9v3.2h-1.5v-7.2zM336.9 228.1h1.6l3.3 7.2h-1.6l-.8-1.9H336l-.8 1.9h-1.5l3.2-7.2zm-.5 4.3h2.6l-1.3-3.1-1.3 3.1zM342.6 228.1h4.1c1.9 0 2.8.7 2.8 1.9 0 1.4-1.1 1.7-1.4 1.8.5.1 1.3.4 1.3 1.5 0 .8.1 1.6.5 1.9h-1.6c-.2-.3-.2-.7-.2-1.1 0-1.3-.3-1.9-1.7-1.9h-2.2v3h-1.5v-7.1h-.1zm1.5 3.2h2.5c1 0 1.5-.4 1.5-1.1 0-.9-.7-1.1-1.5-1.1h-2.4v2.2h-.1zM351.1 228.1h6.2v1.1h-4.7v1.9h4.3v1h-4.3v2.1h4.7v1.1h-6.2v-7.2z" fill="#bebebe" stroke="none"/></g></g></svg>
